<?xml version="1.0" encoding="utf-8"?>
<!-- Generator: Adobe Illustrator 17.1.0, SVG Export Plug-In . SVG Version: 6.00 Build 0)  -->
<!DOCTYPE svg PUBLIC "-//W3C//DTD SVG 1.1//EN" "http://www.w3.org/Graphics/SVG/1.1/DTD/svg11.dtd">
<svg version="1.1" id="Layer_1" xmlns="http://www.w3.org/2000/svg" xmlns:xlink="http://www.w3.org/1999/xlink" x="0px" y="0px"
	 viewBox="103 270.6 401.9 310.1" enable-background="new 103 270.6 401.9 310.1" xml:space="preserve">
<g id="Background" display="none">
</g>
<g id="Objects">
	<path fill="#F69A9C" d="M154.6,440.9c-6.9,0.3-10.1,6.2-14.6,10.3c-0.7-7-2.4-14.1-8.6-18.3c-6-4.1-14.7-2.9-19.3,2.7
		c-4.8,5.8-4.4,14.7,0.9,19.9c5.8,5.7,16,6.7,23.2,3.2c0.2,0,0.5-0.1,0.7-0.1c1.3,2.2,4,4,6.1,4.9c3.2,1.4,6.6,2.2,10.1,2.2
		c7.4,0,14.3-4.6,14.4-12.5C167.6,446.2,161.5,440.6,154.6,440.9z"/>
	<path fill="#F69A9C" d="M150.6,471.2c-3.2-5.1-7.3-9.3-12-12.9c-0.8-0.6-1.8-0.7-2.8-0.5c-0.2,0-0.4-0.1-0.6-0.1
		c-0.4-0.2-0.8-0.4-1.3-0.4c-5.3-0.3-11.4,2.4-15.6,5.5c-4.3,3.2-9.8,8.3-6.4,14.1c3.5,6,9.9,2.4,14-0.6c2.8-2.1,5.3-4.5,7.5-7.2
		c1.1,3,2.6,5.8,4.1,8.1c2.7,4.2,8.1,12.9,14.1,9.4C157.5,483.1,153.1,475.2,150.6,471.2z"/>
	<path fill="#3C3C3B" d="M164.3,453.4c-0.2-6.1-5.3-11-11.5-10.4c-3.5,0.3-6.2,2.5-8.8,4.7c-2.8,2.5-5.4,5.3-7.6,8.4
		c0.3-3.6,0.1-7.2-0.7-10.8c-0.6-3-1.5-6.2-3.5-8.6c-4.3-5.1-11.8-3.5-15.7,1.2c-4.1,5-4.6,12.5,0.3,17.2c3.6,3.4,9.4,4.9,14.5,4
		c-2.2,0.9-4.4,1.9-6.5,2.8c-2.9,1.3-6,2.4-8.5,4.3c-3.3,2.6-5.6,8.1-1.6,11.2c3.9,3,8.9,0.6,11.9-2.6c3.5-3.8,6.8-8.7,8.4-13.8
		c0.2,4.2,1,8.4,2.6,12.3c1,2.5,2.4,4.9,4.2,7c1.3,1.5,3,3.7,5.2,3.9c4.3,0.4,4.7-5.6,4.3-8.6c-0.5-3.8-2-7.3-4.5-10.1
		c2.3,0.7,4.8,0.8,7.2,0.3C159.8,464.6,164.5,459.4,164.3,453.4z M118.6,454.3c-4.9-4.2-4.5-11.3-0.3-15.9
		c4.5-4.9,11.7-4.1,14.5,2.1c2.2,5.1,2.6,11,2.3,16.5C129.9,458.8,122.7,457.8,118.6,454.3z M116.4,476.7c-2.8-1.4-2.7-4.7-1.3-7.1
		c1.4-2.3,4-3.6,6.4-4.7c4.4-2,8.8-3.9,13.2-5.9c-1.8,4.1-3.9,8-6.6,11.6C125.6,474.1,121.3,479.2,116.4,476.7z M149.8,474.7
		c0.4,1.9,0.6,4.2-0.2,6.1c-1.4,3.5-4.4,0.8-6-0.9c-5.2-5.9-7-13.8-7.6-21.5c0.1,0,0.1-0.1,0.2-0.1c0.1-0.1,0.2-0.2,0.3-0.3
		c2.2,2,4.1,4.1,6.5,5.7c0,0.1,0.1,0.2,0.2,0.3C146.6,466.7,149,470.4,149.8,474.7z M152.6,464.4c-2.9,0.4-5.9-0.4-8.4-1.8
		c-2.7-1.5-4.6-4-7-6c0,0,0,0-0.1,0c1.7-1.9,3.4-3.8,5.2-5.6c2.3-2.1,4.8-4.7,7.8-5.9c6-2.6,12.3,2,12.6,8.3
		C162.9,459.2,158,463.8,152.6,464.4z"/>
	<path fill="#3C3C3B" d="M137.4,436c-0.5-0.4-1.1,0.1-1,0.7c0.4,1.6,1.5,2.8,2,4.4c0.6,1.8,0.9,3.7,0.1,5.5c-0.3,0.6,0.6,1.1,1,0.5
		C141.4,443.7,140.3,438.6,137.4,436z"/>
	<path fill="#3C3C3B" d="M151.2,438.5c-5.2-1.9-8.6,4.7-9.9,8.5c-0.2,0.6,0.7,1.1,0.9,0.5c1.8-4.2,3.8-7.8,8.8-8.3
		C151.4,439.2,151.5,438.7,151.2,438.5z"/>
	<path fill="#3C3C3B" d="M132.9,453.9c-0.4-3.5-1-7-1.8-10.5c-0.4-1.8-1.1-3.5-2.8-4.3c-0.1-0.1-0.2-0.1-0.3-0.1c-0.1,0-0.1,0-0.2,0
		c0,0,0,0-0.1,0c0,0-0.1,0-0.1,0c-2.9-0.4-4.7,2.6-4,5.1c-0.7-0.2-1.4-0.2-2,0c-1.9,0.7-2.5,2.9-2.1,4.7c1.1,5.2,8.4,7.4,12.9,6.3
		c0.3-0.1,0.3-0.3,0.2-0.5C132.8,454.4,132.9,454.2,132.9,453.9z M123.7,452c-1.4-0.9-2.8-2.2-3.1-4c-0.4-2.6,2.4-4,4.2-2.1
		c0.1,0.1,0.3,0.1,0.4,0c0.4,0.1,0.8-0.4,0.4-0.8c-0.9-0.9-1.2-2.4-0.6-3.6c0.6-1,1.6-1.3,2.8-1.4c1.8,1.6,2,4.1,2.4,6.4
		c0.4,2.5,0.8,5.1,1.4,7.6c0,0,0,0,0,0.1C128.7,454.2,126,453.7,123.7,452z"/>
	<path fill="#3C3C3B" d="M156.4,454.3c0.5-0.4,0.8-0.9,1-1.5c0.3-0.6,0.5-1.2,0.3-1.9c0.2-0.1,0.3-0.3,0.2-0.6c-1.1-3-4.8-3.8-7.5-3
		c-4,1.1-7.3,4.9-9.4,8.3c-0.2,0.2,0.1,0.5,0.3,0.5c-0.1,0.2-0.1,0.5,0.1,0.7c2,1.7,12.7,8.4,15.1,4.4
		C158.2,459.5,158.5,455.8,156.4,454.3z M142,455.9c-0.1,0-0.1-0.1-0.2-0.1c3.7-3.5,9.9-10.9,14.8-5.5c0,0.5,0,1-0.2,1.4
		c-0.1,0.2-0.2,0.3-0.2,0.5c-0.4,0.6-0.9,1.1-1.6,1.5c-0.8,0.4-0.5,1.5,0.2,1.5c0.7,0.8,1.4,1.3,1.6,2.4c0.1,0.7,0,1.4-0.3,2.1
		c0,0,0,0,0,0C151.6,461.9,145.7,458.1,142,455.9z"/>
	<path fill="#F69A9C" d="M460.9,370.8c-4.1-3.8-10.7-2.9-14.5,0.8c-3.3,3.2-4.3,7.8-4.1,12.3c0,0.1-0.1,0.2-0.2,0.1
		c-2.7-2.9-6.1-5.4-9.5-6.6c-5.3-1.9-11,0.9-12.3,6.5c-1.2,5.1,1.8,10,6.5,12c5.1,2.2,10.6,0.9,15.5-1.3c0.4-0.2,0.8-0.4,1.1-0.7
		c6.1-0.6,13-2.4,17.3-7.2C464.6,382.3,465.4,375,460.9,370.8z"/>
	<path fill="#F69A9C" d="M455.8,390.2c-3.8-0.5-11-1.5-13.5,2.1c-0.3,0-0.6,0.1-0.9,0.3c-1.9,0.3-3.6,1.6-3.7,3.7
		c-3.4,4.9-5.5,12.5-0.1,15.3c4.2,2.2,7.4-1.3,8.6-5c0.8-2.4,1-5.1,0.7-7.6c0.2-0.1,0.2-0.1,0.4-0.3c2.6,1.7,5.5,3.1,8.4,4
		c4.2,1.4,9.7,0.3,9.7-5.2C465.4,392.2,460.1,390.8,455.8,390.2z"/>
	<path fill="#3C3C3B" d="M458.4,374.3c-2.8-3.4-7.8-4.1-11.1-1.1c-1.9,1.7-2.5,4.2-3,6.5c-0.5,2.6-0.8,5.2-0.8,7.8
		c0,0.1-0.1,0.2-0.2,0.1c-1.4-2.1-3-4-4.9-5.6c-1.6-1.5-3.5-2.9-5.7-3.5c-4.6-1.1-8.3,3.1-8.6,7.4c-0.2,4.7,2.7,9.2,7.6,9.8
		c3.3,0.4,7-1,9.5-3.4c0.1-0.1,0.2,0,0.2,0.1c-0.7,1.2-1.4,2.5-2.2,3.7c-1.1,2-2.4,3.9-3.1,6.1c-0.8,2.9,0.3,7.1,3.9,7.2
		c3.6,0.1,5.4-3.5,5.8-6.6c0.4-3.5,0.2-7.6-0.9-11.1c0-0.1,0.1-0.2,0.2-0.1c1.9,2.2,4,4.1,6.5,5.6c1.7,1,3.5,1.8,5.4,2.2
		c1.4,0.3,3.3,0.8,4.7,0c2.7-1.6,0.3-5.3-1.2-6.8c-1.8-1.9-4.1-3.2-6.6-3.8c-0.1,0-0.1-0.2,0-0.2c1.5-0.6,2.9-1.6,4-2.8
		C460.6,382.7,461.1,377.6,458.4,374.3z M432.4,394.5c-4.6-0.3-7.5-4.6-7-9.1c0.5-4.7,5-7.4,9.3-5c3.5,2,6.2,5.2,8.4,8.5
		c0,0,0,0.1,0,0.1C440.8,392.2,436.3,394.8,432.4,394.5z M440.8,408.4c-2.2,0.4-3.6-1.6-3.8-3.5c-0.2-2,0.8-3.8,1.7-5.5
		c1.6-3,3.3-5.9,4.9-8.9c0.1-0.1,0.2-0.1,0.2,0c0.7,3.1,1.1,6.1,1.1,9.3C445,402.9,444.7,407.7,440.8,408.4z M459.2,392.9
		c1,1,2.2,2.2,2.5,3.6c0.7,2.7-2.2,2.4-3.8,2.1c-5.6-1.2-10-5-13.7-9.1c0-0.1,0.1-0.1,0.1-0.2c0.1-0.1,0.1-0.2,0-0.3
		c2.1,0.2,4.1,0.6,6.2,0.5c0.1,0,0.1,0.1,0.2,0.1C453.9,389.6,456.9,390.7,459.2,392.9z M456.4,385.7c-1.5,1.5-3.6,2.3-5.6,2.6
		c-2.2,0.3-4.4-0.3-6.6-0.5c0,0,0,0,0,0c0.1-1.8,0.3-3.7,0.6-5.5c0.4-2.2,0.8-4.8,1.9-6.7c2.4-4.1,8-4.2,10.9-0.6
		C460.1,378.2,459.3,383,456.4,385.7z"/>
	<path fill="#3C3C3B" d="M435.4,375.8c-0.5,0-0.6,0.5-0.3,0.8c0.9,0.7,2.1,1,3,1.7c1.2,0.8,2.1,1.8,2.4,3.1c0.1,0.5,0.8,0.4,0.8-0.1
		C441,378.5,438.2,376.1,435.4,375.8z"/>
	<path fill="#3C3C3B" d="M444.4,371.3c-3.8,1.1-2.9,6.4-2,9.2c0.1,0.5,0.9,0.3,0.7-0.1c-0.8-3.2-1.2-6.1,1.5-8.6
		C444.8,371.6,444.7,371.3,444.4,371.3z"/>
	<path fill="#3C3C3B" d="M440.5,388.1c-1.8-1.8-3.6-3.6-5.5-5.3c-1-0.9-2.2-1.6-3.5-1.3c-0.1,0-0.1,0-0.2,0c-0.1,0-0.1,0-0.1,0.1
		c0,0,0,0,0,0c0,0,0,0-0.1,0c-1.8,1-1.6,3.4-0.3,4.6c0.1,0.1,0,0.1,0,0.2c-0.4,0.2-0.8,0.5-1,0.8c-0.8,1.2-0.2,2.8,0.8,3.6
		c2.9,2.5,8,0.7,10.2-1.9c0.1-0.2,0-0.3-0.1-0.4C440.6,388.5,440.6,388.3,440.5,388.1z M434.3,391c-1.2,0-2.6-0.1-3.5-1
		c-1.3-1.3-0.4-3.3,1.5-3c0.1,0,0.2-0.1,0.2-0.2c0.3-0.1,0.2-0.6-0.1-0.7c-0.9-0.2-1.7-0.9-1.9-1.8c-0.1-0.8,0.4-1.4,1-1.9
		c0,0,0.1,0,0.1,0c1.7,0.2,2.9,1.5,4.1,2.6c1.4,1.3,2.7,2.6,4.1,3.8c0,0,0,0,0,0C438.2,390.1,436.4,390.9,434.3,391z"/>
	<path fill="#3C3C3B" d="M454.2,378.2c0.1-0.4,0.1-0.9-0.1-1.3c-0.1-0.5-0.3-0.9-0.6-1.2c0.1-0.1,0.1-0.3-0.1-0.5
		c-1.9-1.3-4.4-0.2-5.7,1.5c-1.8,2.4-2.1,6-1.8,8.9c0,0.2,0.2,0.2,0.4,0.2c0,0.2,0.1,0.3,0.3,0.3c1.9,0.1,10.9-0.6,10.6-4
		C457.5,380.4,456.1,378.1,454.2,378.2z M446.6,385.4c-0.1,0-0.1,0-0.1,0c0.6-3.6,1-10.5,6.2-9.6c0.2,0.3,0.4,0.6,0.5,0.9
		c0,0.1,0,0.2,0.1,0.4c0,0.5-0.1,1.1-0.3,1.5c-0.3,0.6,0.3,1.1,0.8,0.8c0.8,0.1,1.4,0.2,2,0.7c0.4,0.4,0.6,0.8,0.7,1.3c0,0,0,0,0,0
		C454.8,384.7,449.7,385,446.6,385.4z"/>
	<g>
		<g>
			<path fill="#80D1F5" d="M418.8,543.1c-8.3-0.3-16.7,0-25.1,0.1c-8.4,0-16.7,1.4-25.1,1.9c-0.4,0-0.4,0.7,0,0.7
				c8.1,0.3,16-1.1,24.1-1.2c8.7-0.1,17.4,0.4,26.1,0.1C419.8,544.6,419.8,543.2,418.8,543.1z"/>
			<path fill="#80D1F5" d="M272.2,525c-18.5,0-37.2,0.4-55.7,1.4c-0.4,0-0.4,0.5,0,0.6c18.5,0.9,37.1-0.2,55.7-0.2
				C273.4,526.8,273.4,525,272.2,525z"/>
			<path fill="#80D1F5" d="M340.9,537.5c-0.1-0.6-0.9-0.5-1.1,0c-0.5,1.9-1.1,3.6-3.5,3c-1.4-0.3-2.4-1.9-3.4-2.8
				c-1.3-1.3-3-1.2-4.4,0c-0.7,0.6-1.1,1.8-1.5,2.6c-0.9,1.9-1.9,0.4-2.8-0.6c-1.2-1.4-2.9-2.3-4.7-1.3c-0.7,0.4-0.9,1.4-1.1,2.1
				c-0.9,2.9-3.4,0.5-4.3-0.9c-1-1.5-1.8-2.6-3.6-1.4c-1.2,0.8-2.1,2.1-3.2,3.1c-0.9,0.9-2.9,1.4-3.4-0.2c-0.2-0.6-0.3-1.2-0.6-1.8
				c-0.5-1.3-1.5-2-2.6-2c0.5-1.6,1.7-3.1,2.3-4.7c0.9-2.5,2.2-4.7,2.9-7.2c0.8-3.1,2.6-6.1,3.8-9.1c1.2-2.7,2.3-5.3,3.4-8
				c2.5-6,4.7-12,7.2-18c1.3-3.1,2.3-6.5,4-9.5c0.7-1.2,1.7-3.7,1.6-4.3c0,0.2,0.3,0.2,0.3,0c0-0.3,0-0.5,0-0.8
				c0-0.2-0.3-0.2-0.4-0.1c-0.9,2.2-2.6,4.1-3.5,6.2c-1.4,3.2-2.8,6.4-4.2,9.6c-2.7,5.9-4.9,11.9-7.4,17.9c-2.3,5.3-5.4,10.7-7,16.3
				c-0.7,2.4-1.9,5.1-3.1,7.3c0,0,0,0.1-0.1,0.1c-0.6-2.1-2-4.1-2.7-5.9c-1.5-3.9-2.8-7.9-4.4-11.8c-1.6-4.1-3.2-8.2-4.6-12.4
				c-0.6-1.7-1-3.5-2-5c-0.3-0.4-2.3-4.8-2.5-5.7c0-0.1,0-0.1,0-0.2c0.1,0,0.1-0.1,0-0.2c0.1-0.5,0.1-1,0.2-1.5c0-0.3-0.4-0.3-0.4,0
				c0,0.5-0.1,0.9-0.2,1.4c-0.1,0-0.1,0-0.2,0c-0.2-0.1-0.4,0-0.4,0.2c0,0.4,0.1,0.7,0.2,1.1c-0.4,1-0.8,2.1-1.2,3
				c-0.9,2.4-1.7,4.8-2.4,7.3c-1.4,5-2.6,10-3.9,15c-1.2,4.6-2.8,9-4.7,13.4c-0.1,0-0.2,0-0.4,0c-0.1,0-0.1,0.2,0,0.2
				c0.1,0,0.1,0,0.2,0c0,0.1-0.1,0.2-0.1,0.3c-0.2,0.5-0.4,1-0.6,1.5c-0.3-0.2-0.7-0.1-0.8,0.3c-0.6,2.7-3,4.6-5.7,4.8
				c-4.4,0.4-4.8-2.7-4.9-6.2c0-0.6-1-0.8-1.1-0.1c-0.3,1.9-2.2,5.2-4,5.8c-0.2,0.1-0.3,0.1-0.5,0.1c0-0.1-0.1-0.3-0.1-0.4
				c-0.1-0.4-0.7-0.4-0.8,0c0,0.1,0,0.2-0.1,0.3c-1.2-0.2-2.5-1-3.2-1.6c-1.5-1.2-2-3.1-2-4.9c0-0.6-0.8-0.9-1.2-0.5
				c-2.9,3.1-3.9,9.3-9.5,8.5c-2-0.3-4-3.4-4.7-5.2c-0.6-1.6,0.6-3.2-0.4-4.8c-0.2-0.4-0.9-0.5-1.2-0.2c-2.2,2.4-4.4,8.9-8.1,9
				c0,0,0,0,0,0c-0.6,0-1.2-0.1-1.9-0.5c-2-1-4-9.7-1.2-10.3c0.1,0,0.1-0.1,0-0.1c-0.6,0-1,0.3-1.3,0.7c-0.1-0.1-0.1-0.1-0.3-0.1
				c-0.3,0-0.5-0.1-0.8-0.1c-0.2,0-0.4,0.1-0.4,0.3c-1.1,4.1-1.5,8.4-2.4,12.5c-0.9,3.9-1.5,7.8-2.3,11.7c-0.6,2.5-2,4.8-1,7.5
				c0.7,2.2,4.2,1.7,5.9,1.6c8.3-0.6,16.8-0.2,25.1-0.2c9.3,0,18.5,0,27.8,0c0.3,0,0.6-0.1,0.7-0.4c0,1.9,0,3.8,0,5.7
				c0,0.6,0.5,0.9,0.9,0.9s0.9-0.3,0.9-0.9c0-2.3-1.1-21.6,0.7-21.7c0.3,0,0.3-0.5,0-0.5c-0.2,0-0.5-0.1-0.7-0.1
				c-0.2,0-0.5,0.1-0.5,0.3c-0.2,1.2-1,1.9-1,3.2c-0.1,1.9-0.1,3.8-0.1,5.8c0,0.8,0,1.7,0,2.5c-0.5,0.7-1,1.2-1.8,1.6
				c-1.5,0.9-3.1,0-4.3-1c-0.6-0.5-4.3-5.1-2.5-5.6c0.1,0,0.1-0.2,0-0.2c-2.9,0.1,0.8,6,1.5,6.8c1.4,1.5,3.5,2.2,5.4,1.6
				c0.5-0.2,1.1-0.5,1.6-0.9c0,0.5,0,1,0,1.5c-0.1-0.2-0.4-0.4-0.7-0.4c-16.5,0-32.9,0-49.4,0.1c-2.1,0-8,1.7-8-1.5
				c0-1.9,0.6-3.9,1.2-5.8c0.7,1.6,3.6,2.1,5.3,1.4c0.8-0.3,1.6-0.8,2.2-1.4c-0.2,1.3-0.1,2.6,0.5,3.9c1.1,2.4,3.6,2.6,5.9,2.8
				c2.3,0.2,4.1-1.2,5.4-3c0.8-1.1,1.9-2.3,2.4-3.7c0.1,0,0.2,0,0.3,0c1.3,0.1,3.2-0.3,4.8-1.1c0,1.6,1.9,4.5,2.4,5
				c3.2,3.8,9.1,2.5,10.9-2c0.1-0.3-0.3-0.7-0.6-0.5c-1.1,0.8-2,1.8-3.1,2.6c-2.2,1.5-3.7,0.8-5.8-0.4c-0.7-0.4-3.5-3.8-3.2-5.1
				c1-0.6,1.7-1.5,1.9-2.5c0.9,1.2,2.5,1.4,4.1,1c0.7-0.2,1.4-0.4,2.1-0.8c0,0.9,0.3,1.9,0.9,2.7c0.9,1.3,2.8,2.3,4.4,2.5
				c2.9,0.3,6.1-3.1,6.5-6.1c0.3,0.1,0.7,0.1,1,0.1c3.6,0.1,6.7-4.9,6-8.1c-0.1-0.4-0.7-0.4-0.8,0c-0.8,2.5-2,5.4-4.6,6.4
				c-0.6,0.2-1.2,0.2-1.7-0.1c0,0,0,0,0-0.1c-0.1-0.2-0.3-0.3-0.5-0.2c-1-0.7-1.7-2-2.1-3c-0.7-1.7-0.8-3.6-0.8-5.4
				c0-0.2-0.3-0.2-0.3,0c0,2.8-0.2,7.8,2.5,9.6c-1,2.4-2.4,5.1-5.3,5.2c-1.3,0-3.2-1.4-3.8-2.4c-0.3-0.5-0.5-1.2-0.6-1.9
				c1.1-0.7,2-1.5,2.8-2.6c1.4-2,1.7-4,1.4-6.2c1.9-0.2,3.5-1.9,4.4-3.8c0.4,2.5,1.6,4.3,5.1,4.5c1.9,0.1,4.1-0.6,5.6-1.8
				c-0.6,2.1-1,4.3-1,6.5c0,1.2,1.8,1.2,1.8,0c0-0.7,0.1-1.4,0.2-2c2,0.2,4.1,0.3,6.1,0.2c2.6-0.1,5.2-0.6,7.8-0.7
				c2.3-0.1,4.6,0.5,6.8,0.8c2.1,0.3,4.3,0.3,6.4,0.3c1.2,0,1.2-1.8,0-1.8c-4.5,0-8.8-0.9-13.2-1c-2.3,0-4.6,0.7-6.9,0.9
				c-2.3,0.2-4.6,0.4-6.9,0.6c0.5-3.6,1.8-7,3.1-10.4c3.6,0.1,7.2-0.4,10.8-0.3c4.3,0.1,9,0.6,13.3-0.1c0.6-0.1,0.6-1.1,0-1.2
				c-4.3-0.7-8.9-0.1-13.3-0.1c-3.5,0.1-7,0.5-10.5,1c0.1-0.1,0.1-0.3,0.2-0.4c0.9-2.2,1.7-4.4,2.3-6.6c3.4,0.3,6.8,0.3,10.2,0.3
				c3,0,6.1,0.3,9.1-0.1c0.1,0.3,0.2,0.6,0.3,0.9c0.6,1.6,1.1,3.1,1.9,4.6c0.8,1.7,1.3,3.4,1.9,5.1c-0.4,0.9-0.8,1.9-0.9,2.9
				c-0.1,0.6,0.6,1.1,1.2,0.9c0.8-0.3,1.3-0.1,1.6,0.4c-0.6,3.8-0.7,7.7-0.7,11.5c0,2.3,0,4.6,0.1,6.9c0,2.1-0.2,4.3,0.4,6.3
				c0.2,0.7,1.2,0.7,1.4,0c0.6-1.9-0.6-17.5-0.3-23c0.5,1.1,1,2.3,2.1,2.5c3,0.5,4.7-2.1,6.6-4c1.1-1,2.1,1.4,2.7,2.2
				c0.8,0.9,1.9,1.7,3.1,1.8c1,0.1,2,0,2.5-1c0.4-0.7,0.7-2.9,1.3-3.1c1.2-0.5,2.4,1.5,3.1,2.2c0.7,0.7,1.5,1.1,2.4,1.2
				c2.5,0.3,3-6.2,5.3-4.3c2,1.7,3.4,3.7,6.3,3.5C340.5,542.2,341.4,539.7,340.9,537.5z M224.7,540.1c3.1-1.5,4.3-5,6.2-7.7
				c-0.1,0.8-0.5,1.6-0.3,2.3c0.3,1.1,0.8,2.3,1.4,3.3c0.5,0.8,1.1,1.6,1.9,2.2c-0.7,1.5-1.3,2.9-2.2,4.4c-0.9,1.5-0.6,3-2.8,3.2
				c-1.9,0.2-3.5,0-4.5-1.1c0.1-0.4,0.1-0.8,0.1-1.2c0-0.2-0.3-0.2-0.3,0c0,0.3-0.1,0.5-0.2,0.8c-0.3-0.5-0.5-1-0.7-1.7
				c-0.3-1.3-0.2-2.7-0.3-4.1C223.7,540.4,224.2,540.3,224.7,540.1z M219.6,552.3c-0.9,0.6-2,0.9-3,0.9c-1.3,0-1.5-1.5-2.1-2.4
				c-0.1-0.1-0.2-0.2-0.4-0.2c0-0.1,0-0.2,0.1-0.4c0.5-3.8,1.5-7.5,2.2-11.3c0.3-1.9,0.6-3.9,0.9-5.8c0.1-0.7,0.2-1.4,0.3-2.1
				c0.1-0.9-0.3-1.4,0.4-1.6c-1.1,2.4,0.1,7.5,0.8,8.9c0.7,1.3,2.1,2.1,3.6,2.2c-0.3,2-0.5,4,0.1,6c0.2,0.6,0.5,1.1,0.8,1.5
				C222.5,549.7,221.1,551.3,219.6,552.3z M232.9,554c-0.9,1.3-1.5,2.4-2.8,3.4c-1.7,1.4-5.1,0.9-6.6-0.4c-1.4-1.2-1.9-3.1-1.6-4.9
				c0.9-1.1,1.7-2.4,2.1-3.7c1.2,0.8,2.8,0.9,4.3,0.9c1.1,0,2-0.1,2.8-0.5c0.3,1.7,1.1,3.1,2.9,3.8
				C233.6,553.1,233.3,553.5,232.9,554z M252.4,543.5c-0.4,1.4-1.5,2.7-2.7,3.6c0,0,0,0,0,0c0-0.4-0.5-0.4-0.6,0c0,0.2,0,0.3,0,0.5
				c-0.3,0.2-0.5,0.3-0.8,0.5c-1.6,1-4,1.2-4.9-0.8c-0.8-1.7-2-3.1-2.4-5c-0.1-0.3-0.5-0.2-0.5,0.1c-0.1,1.8,0.8,3.5,1.5,5.1
				c0,0,0,0,0,0c-0.7,0.7-1,1.7-1.8,2.5c-0.9,1-2.3,1.4-3.6,1.5c-0.3,0-0.7,0-1,0c0-0.2,0-0.4,0-0.7c-0.1-0.4-0.6-0.3-0.7,0
				c-0.1,0.2-0.1,0.3-0.2,0.5c-0.7-0.2-1.4-0.5-1.9-0.9c-0.6-0.5-0.8-1.4-0.9-2.3c0.2-0.3,0.4-0.6,0.6-1.1c0.7-1.9,2.5-3.9,2.6-6
				c0.5,0.3,1,0.5,1.5,0.6c2.3,0.7,4.6-0.4,6.4-1.9c1.8-1.6,2.4-3.9,3.6-5.9c0.7,3,2.8,5.7,6.1,6.1
				C252.8,541.2,252.8,542.4,252.4,543.5z M286.4,523.6c-3.3,0-6.7,0-10,0.2c0.7-2.2,1.3-4.5,1.8-6.8c1.2-5.1,2.3-10.1,3.6-15.2
				c0.6-2.4,1.7-4.9,2.4-7.4c0.8,2.5,2.2,4.8,2.9,7.3c0.6,2.1,1.3,4.1,2,6.2c-1.1-0.3-2.2-0.2-3.4-0.2c-1.6,0-3.3,0-4.9,0.2
				c-0.8,0.1-0.8,1.1,0,1.2c1.6,0.2,3.3,0.2,4.9,0.2c1.3,0,2.6,0.2,3.8-0.3c0.6,1.7,1.2,3.4,1.9,5.1c0,0.1,0,0.1,0.1,0.2
				c-1.9-0.3-3.9,0-5.8,0.3c-2.2,0.2-4.3,0.5-6.5,0.8c-0.2,0-0.2,0.4,0,0.5c1.9,0.3,3.7,0.2,5.6,0c2.3-0.2,4.8,0,7-0.6
				c1.1,2.8,2.2,5.5,3.2,8.3C292.2,523.3,289.2,523.6,286.4,523.6z"/>
			<path fill="#80D1F5" d="M215.3,562.6c0-0.3-0.6-0.3-0.7,0c-0.4,2.8-0.9,6.1-0.4,8.9c0.1,0.7,1.3,0.7,1.4,0
				C216.2,568.7,215.7,565.5,215.3,562.6z"/>
			<path fill="#80D1F5" d="M226.5,502.9c1.4-1.4,0.9-4.4,0.9-6.2c0-1.7-1-2.9-2.7-3c-1.2,0-2.3,0.2-3.4,0.3c-1.7,0.1-4-0.7-5.7-0.9
				c-8.6-1.2-17.4-0.8-26-0.7c-1.4,0-2.8,0-4.2-0.1c0,0,0-0.1,0-0.1c0-0.2-0.2-0.2-0.3,0c0,0,0,0.1,0,0.1c-2.3-0.1-4.7-0.2-7-0.1
				c-2.1,0.1-2.5,1.9-4.6,2.1c-0.5,0.1-1.4,0.4-2.1,0.6c0-0.1,0-0.2,0-0.3c0-0.2-0.3-0.2-0.4,0c0,0.1,0,0.3,0,0.5
				c-0.7,0.1-1.2,0.1-1.3-0.5c0-0.1-0.2-0.1-0.2,0c0,0.3-0.1,0.5-0.1,0.8c0,0.1,0.1,0.2,0.2,0.2c0.4,0,0.9,0,1.3-0.1
				c-0.2,3.1-0.3,6.2-0.4,9.3c0,0.4,0.3,0.7,0.7,0.7c0.3,0,0.6-0.1,0.9-0.2c0.4-0.2,0.4-0.7,0-0.9c-0.1,0-0.2-0.1-0.3-0.1
				c0-0.2,0-0.5,0-0.8c0,0,0.1,0.1,0.2,0.1c1.7,0.1,3.3,0.2,5,0.2c0,0.1,0,0.2,0,0.2c0,0.5,0.6,0.6,0.9,0.2c0.1-0.2,0.2-0.3,0.3-0.5
				c5.3,0.1,10.6-0.1,15.9-0.6c0,0.3,0.3,0.6,0.6,0.6c0.7-0.1,1.1-0.3,1.2-0.8c0.4,0,0.8-0.1,1.2-0.1c1.6-0.2,3.2-0.3,4.9-0.3
				c0.1,0.4,0.5,0.5,0.9,0.5c0.5-0.1,0.8-0.2,0.9-0.5c2.3,0,4.5,0.1,6.8,0.2c0,0.1,0,0.3,0,0.4c0,0.4,0.3,0.7,0.7,0.7
				c0.3,0,0.6-0.2,0.9-0.3c0.3-0.1,0.4-0.5,0.2-0.7c2.5,0.1,5,0.2,7.4,0.3c0,0,0,0,0,0c0.7,0.1,1.7,0.3,2.7,0.4
				c-0.9,1.9-0.6,4.3-0.5,6.3c0.1,2.3,0.3,4.5,0.6,6.8c0.3,2.5,0,5.2,0,7.7c0,1.4,2.2,1.4,2.2,0c0-4.2-0.3-8.2-0.8-12.3
				c-0.3-2.2-1.1-5.9-0.5-8.3C224.6,503.7,225.8,503.6,226.5,502.9z M217.9,501.4c0-0.7,0-1.4-0.1-2c-0.1-1.1-0.1-2.2-0.3-3.3
				c0-0.3-0.5-0.3-0.5,0c-0.1,1.1-0.2,2.2-0.3,3.3c0,0.6-0.1,1.3-0.1,1.9c-1.6-0.1-3.3-0.2-4.9-0.3c0-0.9,0-1.9-0.2-2.7
				c-0.2-1.1-0.8-2-1.1-3.1c-0.1-0.3-0.6-0.2-0.6,0.1c0,1,0.4,1.9,0.5,2.8c0.1,0.9,0.1,1.9,0,2.8c-2.5-0.1-5-0.2-7.4-0.2
				c-0.2-2.1-0.8-4.2-1-6.2c0-0.5-0.7-0.5-0.7,0c-0.1,2.1,0.2,4.2,0.3,6.3c-1.6,0-3.1,0.1-4.7,0.3c-0.6,0.1-1.2,0.1-1.9,0.2
				c-0.3-2-0.8-4-1-6c0-0.3-0.4-0.3-0.4,0c-0.1,2.1,0.2,4.1,0.3,6.2c-3.1,0.4-6.2,0.8-9.3,0.9c-2.1,0.1-4.2,0.1-6.2,0.2
				c0-0.1,0-0.1,0-0.2c0-0.3-0.5-0.3-0.5,0c0,0.1,0,0.1-0.1,0.2h0c-0.2-2.4-0.7-4.9-0.9-7.3c0-0.4-0.6-0.4-0.6,0
				c-0.1,2.4,0.3,4.9,0.5,7.3c-1.6,0.1-3.3,0.1-4.9,0.2c-0.1,0-0.1,0-0.2,0.1c-0.1-2.5-0.2-5-0.4-7.5c1.5-0.1,3.1-0.3,4.3-1
				c1.5-0.8,2.2-1.3,4.1-1.3c1.3,0,2.7,0.2,4,0.3c0.4,0,0.8,0,1.2,0.1c-0.2,1.3-0.3,2.5-0.4,3.9c-0.1,1.4-0.2,3.4,0.9,4.5
				c0.1,0.1,0.4,0.2,0.6,0.1c0,0,0.1,0,0.1,0c0.2-0.1,0.3-0.2,0.3-0.4c0-0.5-0.4-0.9-0.5-1.4c-0.3-0.9-0.3-1.9-0.4-2.8
				c-0.1-1.3-0.1-2.5-0.1-3.8c6.4,0.3,13-0.3,19.4-0.2c3.3,0.1,6.6,0.3,9.8,0.7c2.2,0.3,4.9,1.4,7.1,1c1.3-0.2,3.8-1,4.5,0.7
				c0.4,0.9,0.1,2.3,0,3.3c-0.2,1.7-0.9,2.9-2.7,2.9c0,0,0,0,0,0c0-0.7-0.1-1.3-0.1-2c-0.1-1.3-0.1-2.6-0.3-3.9c0-0.3-0.5-0.3-0.6,0
				c-0.1,1.1-0.2,2.2-0.3,3.3c0,0.7-0.1,1.5-0.1,2.3c0,0-0.1,0-0.1,0C220.7,501.6,219.3,501.5,217.9,501.4z"/>
			<path fill="#80D1F5" d="M190.4,511c-7.7-4.8-7,9.6-6.9,13.3c0,0.2,0.2,0.2,0.2,0c0.1-3.2-0.7-14.3,4.7-13c3.9,1,3.2,7.3,3.1,10.3
				c0,1.1,0.3,3.1-1.5,3.1c-0.7,0-1.5-0.3-2.2-0.3c-1.2-0.1-2.6-0.2-3.7,0.4c-0.3,0.1-0.3,0.6,0,0.7c1.7,0.8,4.1,0.6,5.9,0.7
				c1.7,0.1,2.8-1.2,2.9-2.8C193,519.8,194,513.3,190.4,511z"/>
			<path fill="#80D1F5" d="M210.6,517.5c-0.4-2.1-0.1-4.5-1-6.4c-1.2-2.9-5.7-2.1-7,0.1c-2,3.3-1.6,7.3-1.3,11.1
				c-0.3,0.2-0.3,0.7,0.1,0.9c0,0.1,0,0.2,0,0.3c0,0.4,0.6,0.4,0.6,0c0,0,0-0.1,0-0.1c1.8,0.5,3.9,0.2,5.7,0.3
				c1.1,0.1,2.5,0,3.1-1.1C211.6,521.2,210.9,519.1,210.6,517.5z M208.2,522c-2.1,0.1-4.3-0.5-6.3,0c0-2-0.2-3.9,0-5.9
				c0.1-1.7,0.7-3.5,1.8-4.8c0.8-0.8,1.8-1,2.9-0.8c2.1,0.3,2,2.2,2.1,3.6C208.8,515.8,210.5,521.9,208.2,522z"/>
			<path fill="#80D1F5" d="M193.2,543.9c-0.1-1.7-0.1-3.5-0.5-5.1c-0.6-2.4-2.4-5-5.2-4.1c-3.8,1.2-6.9,10-3.4,12.7
				c0.4,0.3,0.9-0.2,0.5-0.5c-2.7-2.7,0.2-9.4,3-11c4.1-2.4,4.6,8.8,4,12c-2.1,0-4.3,0-6.4,0c-1.1,0-1.1,1.6,0,1.6
				c2.3,0,4.7,0,7.1,0c0.4,0,0.7-0.2,0.8-0.6C193.6,547.3,193.4,545.5,193.2,543.9z"/>
			<path fill="#80D1F5" d="M206,532.3c-7-0.4-6.2,9.3-4.9,13.9c0,0.1,0,0.2,0.1,0.4c1.5,2.7,6.7,1.4,9.1,1.3c0.3,0,0.7-0.2,0.8-0.6
				C211.9,543.3,212,532.6,206,532.3z M202.1,545.8c-0.7-3.8-1.9-11.9,3.5-12.2c4.8-0.2,4.7,9,4.1,12.7
				C207,546.3,204.6,546.5,202.1,545.8z"/>
			<path fill="#80D1F5" d="M175,532.7c-0.2-5.1-0.6-10.3-0.9-15.4c-0.1-2.7-0.3-5.5-0.3-8.2c0-1.4,0-2.7,0-4.1c0-1-0.5-0.6,0.4-0.9
				c0.1,0,0.1-0.1,0-0.2c-0.4-0.1-0.5-0.2-0.8-0.3c-0.1,0-0.3,0.1-0.3,0.3c-1,4.7-0.6,9.8-0.5,14.5c0.2,5.1,0.6,10.3,0.7,15.4
				c0.1,6,0.1,12,0.1,18c-0.1-0.2-0.3-0.5-0.5-0.7c-0.3-0.3-0.6-0.6-0.9-0.9c-0.3-0.2-0.9-0.4-1.1-0.8c0.7-2.5,0.9-5.1,0.2-7.7
				c-0.3-0.9-0.8-1.7-1.5-2.4c-0.5-0.5-2.5-2.2-3.1-2.2c0.2,0,0.3-0.2,0.3-0.3c2.8-0.8,4.8-4.1,4.6-6.9c-0.1-1.4-1.1-2.5-2-3.4
				c-0.9-0.9-1.8-1.7-1.9-3c-0.1-1,0.2-2.1,0.2-3.1c0-6-8.3-7.8-11.8-4c-1.1-3-3.1-5.3-6.8-4.8c-1.8,0.2-4.2,1.1-5.2,2.8
				c-1.1,1.8-0.6,4.7-0.2,6.7c0,0.1,0.2,0.1,0.3,0c0.6-3.2,0.6-6.4,4.3-7.6c4.1-1.3,5.8,2.1,6.5,5.4c0.2,1,1.5,0.8,1.8,0
				c1-3,4-2.7,6.6-2.4c3.2,0.4,2.4,5.3,2.6,7.4c0.1,1.6,1.3,2.8,2.4,3.8c2.5,2.6,1,6.5-2.5,7.2c-0.8,0.1-0.8,1-0.5,1.5
				c0,0.1,0,0.1,0,0.2c0.2,2,2,2.6,3.4,3.8c2.2,1.9,1,6.3,1.6,8.9c0,0.1,0,0.1,0.1,0.2c0.3,1.2,1.7,1.7,2.3,2.8
				c0.7,1.3,0.2,2.9,0.8,4.2c0.1,0.1,0.2,0.2,0.3,0.2c0,2.2,0,4.4,0,6.6c0,1.2,1.9,1.2,1.9,0C175.1,553.2,175.4,543,175,532.7z"/>
			<path fill="#80D1F5" d="M157.7,541.4c-1.6-1.3-4.6-0.9-4.7,1.7c-0.1,2.4-0.7,4.7-0.8,7.1c0,1.2-0.8,2.2-1.2,3.4
				c-1.5-1.7-2.4-5.1-3.1-6.9c-0.8-2.1-1.8-4.5-4.3-4.7c-0.3,0-0.5,0.3-0.4,0.6c0,0.3,0.1,0.6,0.1,1c0,0.1,0.1,0.2,0.2,0.2
				c-0.1,0-0.2,0.1-0.2,0.3c0,2.8,0.8,5.2,1.8,7.7c1.1,2.8,2.1,5.4,2.7,8.4c0.6,2.6,0.9,5.4,1.7,8c0.6,1.8,0.1,3.7,1.2,5.3
				c0.6,0.8,2,0,1.4-0.8c-1-1.4-0.8-3.8-1.3-5.5c-0.7-2.3-1.1-4.9-1.6-7.3c-0.6-2.4-1.2-4.6-2.2-6.9c-1.3-2.9-2.8-5.7-3.1-8.9
				c0-0.2-0.1-0.2-0.2-0.3c0.1,0,0.2-0.1,0.3-0.2c0.3-1.7,2,1.7,2.3,2.4c0.6,1.2,1,2.5,1.5,3.7c0.8,2,1.6,4.7,3.4,6
				c0.5,0.3,1-0.1,1.1-0.6c0.1-1.3,0.8-2.2,1.3-3.4c0.5-1.1,0.4-2.6,0.6-3.8c0.2-1.4,0.2-3.6,0.7-4.9c0.7,0,1.3,0,2,0
				c0.4,0.9,0.6,1.9,0.5,2.9c0,1.1-0.5,2.3-0.8,3.3c-1,3.3-1.3,6.8-1.6,10.2c-0.3,3.9-0.6,8.1-0.2,12.1c0.1,0.9,1.4,0.9,1.5,0
				c0.6-6,0.1-11.9,1-17.9C157.6,550.4,160.8,544.1,157.7,541.4z"/>
			<path fill="#80D1F5" d="M111.7,567.8c-2.8-2-6.4-2.1-7.3-6c-0.7-3.2,0.6-5.7,3.9-6.1c0,0,0,0,0,0c-3-0.2-5.2,1.2-5.3,4.5
				c-0.1,1.6,0.1,3.6,1.2,4.9c1.8,2.2,4.6,2.4,7,3.6C111.8,568.9,112.2,568.2,111.7,567.8z"/>
			<path fill="#80D1F5" d="M142.2,520c-2.8-0.8-6.4-1-8.7,1.1c-2.6,2.4-0.8,5-0.3,7.6c-1.6,0-2.7,0-4,1.4c-1.2,1.3-2.7,3.4-3,5.1
				c-0.3,1.9-1.5,3.2-0.6,5.1c0.8,1.9,2.1,2,3.7,2.5c-0.1,0.6-0.3,1-0.5,1.5c-2.1-2.2-4.6-4.4-7.7-4.4c-2.1,0-1.9,1.6-2.2,3
				c-4.4-0.4-8.3-2.8-12.2,0.5c-3.2,2.7-3.6,9.5,0.9,11c0.5,0.2,0.8-0.4,0.6-0.8c-0.9-1.7-2.1-2.7-2.2-4.8c-0.1-2.8,2.2-5.4,4.9-5.7
				c2.8-0.3,5.7,1.2,8.6,1.3c0.4,0,0.6-0.2,0.8-0.6c0.5-1.4,0-2.6,2.2-2.7c1.7-0.1,5.1,2.2,6.4,3.2c-0.4,1-0.9,2-0.9,3.3
				c0,2.1-0.2,3.4,1.2,5.2c1.7,2.2,4.3,3.2,6.9,4.1c-1.5,0.5-2.6,3.2-2.9,4.5c-0.4,2.2-0.8,4.4-0.9,6.7c0,1,0,2,0.2,3
				c0,0,0.6,2.8-0.5,2.1c-0.4-0.2-0.7-0.6-0.9-0.9c-2.5-3-3.8-7-5.8-10.3c-1.1-1.7-3.4-2.4-3.5,0c-0.1-0.2-0.1-0.4-0.1-0.6
				c-0.1-0.5-0.8-0.4-0.8,0.1c0,1.1,0.3,2.1,0.7,3.1c0.9,2,1.3,3.9,1.9,5.9c0.9,2.9,2.2,6,2.4,9c0.1,1,1.7,1,1.6,0
				c-0.2-2.6-1.2-5.2-2-7.6c-0.6-1.9-1-3.8-1.7-5.6c-0.5-1.3-1.3-2.4-1.8-3.7c0.1,0,0.2,0,0.3-0.2c0.7-3.1,2.6,1,3,1.7
				c1,1.8,1.8,3.7,2.8,5.5c1,1.8,2.6,5.4,5.1,5.1c0.2,0,0.4-0.2,0.4-0.4c0.4-1.2,0.4-2.2,0.2-3.5c-0.3-2.2-0.1-4.5,0.4-6.6
				c0.2-1.1,0.3-2.2,0.6-3.3c0.4-1.7,1.2-2.1,2.5-2.7c-0.5,2.9-1,5.5-1,8.5c0,2.5-1.3,5-0.7,7.6c0.1,0.5,0.9,0.5,1,0
				c0.3-1.2,0.2-2.4,0.5-3.6c0.4-1.4,0.5-2.4,0.4-4c0-1.7-0.2-3.5,0.2-5.2c0.2-1.2,0.4-2.4,0.3-3.6c0.1-0.1,0.1-0.3,0-0.4l0,0
				c0.3-0.2,0.4-0.6,0.2-0.9c-2-1.9-4.8-2.5-6.9-4.4c-3-2.8,0-6.9,0.4-10.1c0.1-0.5-0.3-0.8-0.7-0.9c-1.5-0.6-3.3-0.4-3.4-2.5
				c-0.1-1,0.7-2.7,1.1-3.5c0.7-1.3,1.4-2.6,2.3-3.7c0.9-1.2,2.4-0.8,3.7-0.8c0.5,0,1-0.4,1-1c-0.1-2-1.7-4.1-1.2-6.1
				c0.8-3.4,5.6-2.3,8.1-3C142.5,520.6,142.5,520.1,142.2,520z"/>
			<path fill="#80D1F5" d="M504.8,566.1c-0.8-1.7-1.4-3.5-2.4-5.1c-1.2-2-1.4-4.3-2.5-6.3c-1-2.1-1.7-4.2-2.5-6.3
				c-0.3-0.9-1.5-1.2-2.4-1.4c-1.2-0.3-2.4-0.1-3.6,0c-2.6,0.2-5.2,0-7.8,0.1c-5.1,0.1-10.2,0.3-15.2,0.6c-0.9-3.4-4.3-6.9-6.6-8.8
				c-3.8-3.2-8.3-4.6-13.2-4c-4.7,0.6-9.8,3-13.7,5.6c-1.9,1.3-3.5,2.9-4.8,4.7c-1.4,2-1.2,5-1,7.3c0,0.2,0.1,0.3,0.2,0.4
				c-4.9-4.8-7.5-12.2-9.1-18.6c-0.7-3-1.2-6.1-1.7-9.2c0.1,0,0.2,0,0.3,0c1.1-0.1,1.1-1.6,0-1.7c-0.2,0-0.3,0-0.5,0
				c-0.1-0.9-0.3-1.9-0.4-2.9c-0.3-2-0.3-3.7-0.1-5.7c0.1-1.4,0.1-2.8-0.7-4.1c-1.3-2.1-4.7,0-6.2,0.4c-0.7,0.2-1.4,0.4-2,0.6
				c0-2.9-0.1-5.8-0.2-8.7c0-0.5-0.4-0.7-0.9-0.7c-0.9,0.2-2,0.1-3,0.2c-0.3,0-0.4,0.2-0.5,0.5c-1.1,0.7-1.3,2.2-1.4,3.4
				c-0.2,2.3,0.1,4.6,0.2,6.9c-1.7,0.5-3.5,0.9-5.2,1.3c-4.1,0.9-8.3,1-12.3,0.1c-0.1-0.7-0.4-1.5-0.3-2.3c0-1.9,0.2-3.8,0.1-5.7
				c-0.2-2.4-1.2-4.5-3.7-4.3c0-0.4,0-0.8-0.1-1.1c0-0.4-0.6-0.4-0.6,0c0,0.5,0,0.9-0.1,1.4c0,0.1,0,0.1,0,0.2
				c-0.1,1.6-0.1,3.1-0.2,4.7c-0.1,1.9-0.7,3.6-0.9,5.4c-1.2-0.4-2.3-0.8-3.2-1.6c-1.2-1-2.2-1.8-3.7-2.3c-0.4-0.1-0.9,0.2-1,0.6
				c-0.8,5.1,0.5,10.1-0.4,15.1c-1.1,5.6-3.5,11-6.4,15.8c-2.4,4-4.8,8-8.1,11.3c-3.7,3.8-8,4.6-12.9,5.2c-0.1-2.4-0.2-4.9-0.2-7.3
				c0-2.3-0.1-4.6-0.2-6.9c0-0.6-0.1-1.1-0.1-1.7c0.4,0,0.9-0.3,0.9-0.8c0.1-1.4,0.1-2.8-0.2-4.2c0.3,0.1,0.6,0,0.7-0.4
				c0.4-1.4-0.2-2.5,1.8-2.6c0.4,0,0.7-0.3,0.7-0.7c0-2.2,0.5-4.2,3.5-3c0.8,0.3,1.8,0.4,2.7,0.3c0.8,0.8,1.7,0.2,2.6-0.3
				c0.2-0.1,0-0.4-0.2-0.3c-0.2,0.1-0.4,0.2-0.6,0.2c0,0,0-0.1,0-0.1c-0.4-0.1-0.8-0.2-1.2-0.2c-0.6-0.7-0.5-2.4-0.1-3.4
				c0.8-1.7,3-5,5-1.6c0.4,0.7,0.7,1.7,1,2.5c0.3,0.6,1.1,0.4,1.4,0c0.3-0.4,0.5-0.9,0.7-1.4c0.7-1.9,2.7-3.2,4.1-0.9
				c1,1.6,1,3.7,1.9,5.3c0.2,0.5,0.8,0.3,1-0.1c1-2.5-1.2-7.1-3.6-8.1c-2.8-1.2-3.7,1.1-4.6,3c-0.6-1.5-1.4-3-3.2-3.1
				c-2.8-0.2-3.9,1.4-4.9,3.7c-0.7,1.6-0.5,2.6,0.2,4c-0.6-0.1-1.2-0.2-1.7-0.5c-1.1-0.6-2.1-0.6-3.2-0.3c-1.7,0.4-2,2.2-2,3.7
				c-1.3,0.2-2.2,0.9-2.4,2.1c-0.7-2.4-1.6-4.8-2.4-7c-1.9-5.4-3-10.7-4.4-16.2c-1.5-5.9-3.4-11.8-5.2-17.6
				c-1.6-5-3.7-10.3-4.4-15.5c0-0.3-0.5-0.3-0.5,0c0.1,4.9,1.9,9.4,3.1,14.1c0.7,2.8,1.5,5.5,2.2,8.2c-1.3,1-1.5,2.7-2.6,3.8
				c-1.4-1.5-3.4-3.9-5.4-3.2c-0.8,0.3-1.6,1.4-2,2.2c-1,1.9-3.2,0.6-3.7-1c-0.2-0.7-0.3-1.5-0.5-2.3c0-0.2-0.5-0.2-0.5,0
				c-0.5,2.6,0.1,6.8,3.9,5.9c1.6-0.4,2.2-1.7,3.2-2.9c0.8-0.8,3.6,2.6,4.2,3.2c0.3,0.3,0.8,0.4,1.2,0.1c1.2-0.7,2.3-2.1,2.9-3.6
				c0.6,2.3,1.2,4.6,1.8,6.9c0.2,1,0.4,1.9,0.7,2.9c-0.2,0.6-0.4,1-0.8,1.6c-0.6,0.8-0.5,1.7-0.8,2.6c-1.5-0.8-3.1-2.8-4.5-2.4
				c-1,0.3-1.6,1.9-2.3,2.5c-0.5,0.5-3.3-3.7-3.8-4.2c-0.4-0.4-1.1-0.4-1.5,0c-1.3,1.5-2.2,3.3-3.6,4.7c-2.5,2.5-6.1-3.9-4.1-5.2
				c0.2-0.1,0.2-0.5-0.1-0.6c-1.1-0.2-1.7,0.7-1.8,1.7c-0.2,2.1,0.2,3.4,1.6,5.1c3.5,4.1,6.5-0.5,8.7-3.3c1.3,2,3,5,5.4,3.8
				c0.6-0.3,1.2-1.1,1.6-1.6c0.8-0.8-0.1-1,0.9,0c0.7,0.7,2.6,1.6,3.6,1.9c0.3,0.1,0.8,0,1-0.3c0.8-1,0.9-1.8,1.1-2.8
				c0.7,3.5,1.5,6.9,2.7,10.3c0,0.1,0,0.1,0.1,0.2c-0.3,1.1-0.9,2.5-2.5,1.8c-0.6-0.3-1-0.8-1.6-1.2c-0.9-0.7-1.7-0.6-2.7-0.1
				c-0.4,0.2-0.7,0.7-0.9,1.1c-0.6,0.9-0.8,0.8-1.9,0.8c-1.9,0-3.1-2.1-4.7-3c-0.5-0.3-1.1,0-1.3,0.5c-0.8,1.9-3.8,5.1-5.7,2.3
				c-0.8-1.1-1.3-2-2.4-2.9c-0.3-0.3-0.8-0.1-1.1,0.1c-1.3,1-1.9,2.5-2.7,3.8s-3.3,2.7-4.3,0.3c-0.4-0.9-0.3-3.3,0.7-3.9
				c0.4-0.2,0.1-0.7-0.3-0.6c-1.3,0.2-1.8,1.8-2.2,2.9c-0.5,1.7,0.4,3.6,2,4.3c4,2,5.3-2.6,7.4-4.9c1.6,1.6,1.9,3.4,4.7,3.6
				c2.4,0.2,4.1-1.5,5.1-3.5c1.6,1.2,2.5,2.7,4.7,2.7c0.6,0,2.1,0.3,2.6-0.3c0.7-0.9,1.3-2.5,2.6-1.2c1.7,1.7,4.1,1.3,5.3-0.2
				c1.2,3.4,2.2,6.8,2.9,10.3c-0.2,0.7-0.4,1.4-0.4,2.2c-0.2,2.6-0.2,5.2-0.2,7.8c-0.2,5.9-0.7,12.2-0.1,18.1c0.1,1.3,1.9,1.3,2,0
				c0.3-2.8,0.3-5.6,0.2-8.4c0.1,0.1,0.2,0.2,0.4,0.2c8.2,0.8,16.4-0.3,24.5-1.2c7.9-0.8,15.7-1.5,23.7-1.5c3.3,0,6.4,0.6,9.6,0.8
				c3.9,0.3,7.8-0.2,11.6,0.4c5.7,0.8,11.7,1.4,17.5,1.3c-0.1,1.5-0.2,3-0.2,4.5c0,1.1-0.4,2.7,0.5,3.5c0.3,0.2,0.6,0.2,0.8,0
				c1-0.8,0.5-2.4,0.5-3.5c0-1.5-0.1-3-0.2-4.5c0.6,0,1.2,0,1.8-0.1c0.1,0,0.2,0.1,0.3,0.1c1.3,0.5,1.9-1.6,0.6-2.1
				c-2.4-0.9-4.4-2.3-6.2-4c0.1,0.1,0.2,0.2,0.4,0.2c0.4,0,0.6-0.2,0.9-0.5c0.1-0.1,0.1-0.2,0-0.3c-0.1-0.1-0.2-0.2-0.3-0.2
				c0.2-2.5,0.3-4.9,1.9-6.9c1.3-1.6,3-2.9,4.7-4c3.6-2.3,8.1-4.1,12.4-4.6c4.4-0.5,8.4,1.2,11.7,4c1.5,1.3,2.8,2.8,3.8,4.5
				c0.5,0.9,0.9,1.9,1.4,2.8c-0.3,0.1-0.4,0.4-0.5,0.7c-0.3,3-2.3,6.5-3.4,9.3c-0.8,2-2.8,4.7-2.3,6.9c-0.1,1.6-2.4,3.2-1.5,4.8
				c1.1,1.9,4.4,0.9,6.4,0.5c0.8,1.3,1.1,2.3,2.5,3.3c1.2,0.9,3.5,0.3,4.7-0.3c1.2-0.6,2.4-1.2,3.7-1.6c1.7-0.6,2.7,0.5,4.3,1
				c1.4,0.4,2.8,0.8,4.1-0.3c1.4-1.3,2.1-2.6,4.1-1.5c0.8,0.4,1.4,0.8,2.2,1.1c1.8,0.6,5-1.8,6.4-0.7c2.8,2.3,5.2,1.8,6.6-1.5
				c0.4-0.9-0.9-1.7-1.4-0.8c-1.2,2.3-2.6,2.2-4.4,0.7c-0.8-0.7-1.6-0.7-2.6-0.6c-0.5,0.1-1.1,0.6-1.5,0.8c-1.6,0.8-3,0.3-4.3-0.6
				c-1.2-0.8-2.3-1.2-3.7-0.8c-1.6,0.4-2.1,3.1-4.1,2.7c-1.5-0.3-2.6-1.3-4.2-1.5c-1.5-0.2-3.1,0.8-4.4,1.4
				c-1.1,0.6-2.2,1.1-3.5,1.2c-2,0.2-2.4-2.2-3.2-3.4c-0.2-0.2-0.5-0.5-0.8-0.4c-1.1,0.1-5.7,1.5-5-0.3c0.3-0.7,0.5-1.4,0.5-2
				c0.5,0.1,1-0.4,0.7-0.9c-0.6-1,1.3-4.7,1.7-5.7c0.5-1.2,1.1-2.5,1.6-3.7c0.7-2,1.9-3.8,2.4-5.9c0.2,0.3,0.4,0.5,0.6,0.8
				c0.2,0.2,0.7,0.1,0.8-0.2c0-0.3,0.1-0.5,0.1-0.8c7.9,0.3,16.2,0.1,24-0.7c2.5-0.2,3.2,0.4,3.9,2.8c0.3,1.1,0.8,2,1.4,3
				c-1.3,0.7-1.6,1.8-3.7,0.6c-1.2-0.7-2.1-0.9-3.4-0.6c-0.8,0.1-2.1,1.9-2.6,1.6c-1.2-0.5-2.5-2.4-4-2.3c-1.3,0.1-2.5,0.4-3.7,1.1
				c-2.6,1.5-2.5-0.5-4.1-1.5c-1-0.6-1.8,0.1-2.6,0.6c-1.5,0.9-3,2.3-4.7,1.1c-0.8-0.5-1.9-0.5-2.7-0.9c-0.4-0.2-0.7,0.2-0.4,0.6
				c1.9,2.3,4.7,2.9,7.3,1.6c0.6-0.3,2.2-2,2.8-1c0.4,0.7,0.7,1.2,1.4,1.7c1,0.8,2.3,0.3,3.3-0.2c2.1-1,3.3-1.9,5.4-0.3
				c0.9,0.7,2.2,1.8,3.4,1.1c0.4-0.3,0.7-0.7,1-1.1c1-1.4,2.7-0.2,3.9,0.3c1.4,0.6,2.7,0.5,3.9-0.4c0.2-0.1,0.4-0.4,0.4-0.7
				c0,0,0,0,0-0.1c0.2,0.4,0.4,0.9,0.5,1.3c0.9,3.4,2.6,6.6,4.2,9.8C503.7,568.2,505.3,567.2,504.8,566.1z M404.5,503.6
				c0.1,0,0.1,0,0.2,0c0.8,0,1.6,0,2.4,0.1c-0.1,2.9-0.2,5.8-0.2,8.7c-0.7,0.2-1.5,0.4-2.2,0.7c-0.1-1.3-0.4-2.7-0.5-4
				C404,507.8,403.4,504.7,404.5,503.6z M381.8,507.9c-0.1-1.5-0.1-2.9-0.2-4.4c4.3,0.4,1.7,7.1,1.8,10.9c-0.2-0.1-0.4-0.1-0.6-0.2
				c-0.5-0.2-1-0.3-1.6-0.5C381.4,511.8,381.8,510,381.8,507.9z M431,557c-2.3,0-4.7,0.1-7-0.1c-3.5-0.4-7-0.6-10.5-1.1
				c-3.4-0.5-6.9-0.3-10.4-0.3c-3.3,0-6.4-0.8-9.7-0.8c-7.9,0-15.7,0.6-23.6,1.5c-4.1,0.5-8.1,0.9-12.2,1.4
				c-2.3,0.2-4.7,0.3-7.1,0.4c1.9-0.5,3.7-1.3,5.4-2.6c4-3.1,6.9-7.4,9.5-11.7c2.9-4.8,5.4-9.8,7-15.3c0.8-2.8,1.3-5.7,1.2-8.6
				c-0.1-2.8-0.7-5.6-0.5-8.3c1.1,0.7,2,1.6,3.1,2.4c1.6,1.2,4.1,1.5,6,2.2c0.5,0.2,1.1,0.3,1.6,0.5c0.3,0.3,0.6,0.6,1.2,0.6
				c0.2,0,0.3-0.1,0.4-0.2c3.2,0.7,6.6,0.8,9.9,0.3c4.1-0.5,8.2-1.7,12.2-2.9c0.1,0,0.1,0,0.2,0c0.5,0,0.7-0.1,1.1-0.4c0,0,0,0,0,0
				c1.5-0.5,3.1-0.9,4.5-1.4c0.8-0.3,1.7-1.1,2.2,0.1c0.3,0.9,0.1,2.1,0,3.1c-0.3,2.7,0.1,5.4,0.6,8.1c-0.1,0-0.1,0.1-0.2,0.1
				c-1.2,0.6-2.6,0.4-3.9,0.4c-4,0-8,0-12,0c-8.3,0-16.9-0.5-25.2,0.4c-0.6,0.1-0.6,0.9,0,1c8,0.8,16.2,0.4,24.2,0.4
				c3.8,0,7.5,0,11.3,0h5.3c0.2,0,0.4-0.1,0.6-0.3c0.1-0.1,0.2-0.1,0.3-0.2c0.1,0.7,0.2,1.4,0.4,2.1c0.4,2.3,0.8,4.6,1.3,6.9
				c-7.4-0.6-15,0-22.4,0c-8,0-16.1-0.4-24,0.3c-0.5,0-0.5,0.8,0,0.8c7.6,0.6,15.4,0.2,23,0.3c7.9,0,16,0.7,23.8,0
				c0.4,1.7,0.9,3.3,1.4,4.9c1.1,3.2,2.5,6.4,4.4,9.2c-2.5-0.1-4.9-0.4-7.4-0.6c-3.3-0.3-6.7-0.1-10-0.1c-6.3,0-12.5-0.2-18.8,0.7
				c-3.3,0.5-6.4,0.9-9.8,0.9c-2.8,0-5.7-0.1-8.4,0.2c-2.7,0.2-5.4,1.4-8.1,1.5c-1.4,0.1-2.8,0.2-3.9,1.1c-0.4,0.3,0.1,0.9,0.5,0.7
				c1.4-0.9,3.8-0.6,5.5-0.9c2.8-0.6,5.6-1.1,8.4-1.1c2.6,0,5.1,0,7.7,0c2.9,0,5.6-0.5,8.4-0.9c6.1-0.9,12.3-0.6,18.4-0.6
				c3,0,6-0.1,9,0.1c3.2,0.1,6.3,0.6,9.4,0.7C427,553.8,428.9,555.6,431,557z"/>
			<path fill="#80D1F5" d="M458.8,556.8c-1.7,0.2-3.4,1.9-4.4,3.2c-1,1.3-1.7,2.8-2.6,4.2c0-0.3-0.1-0.5-0.1-0.7
				c-0.4-4.7-0.9-9.3-0.9-14.1c0-0.8-1.2-0.8-1.2,0c0,4.2,0,8.4,0.6,12.5c0.1,0.7,0.2,1.4,0.2,2.1c0,0-0.1,0-0.1,0
				c-0.4-0.2-1.1-1-1.4-1.3c-0.8-0.7-1.5-1.5-2.2-2.4c-1-1.2-2.9-3.1-3.1-4.7c-0.1-0.4-0.8-0.3-0.7,0.1c0,2,1.9,4.1,3,5.5
				c1,1.3,2.6,3.8,4.5,3.5c0,0,0.1,0,0.1,0c0,0.4,0,0.8,0,1.3c-0.1,0.1-0.3,0.2-0.4,0.3c-0.5,0.3-0.2,0.9,0.3,0.9
				c-0.1,0.6-0.3,1.2-0.5,1.7c-0.1,0.2,0,0.3,0.1,0.5l0.1,0.1c0.2,0.2,0.6,0.2,0.9,0.1c1.1-0.5,1.3-1.9,1.2-3.3
				c0.9-0.8,1.6-2.1,2.2-3.1c1-1.8,2.5-4.9,4.7-5.5C459.3,557.5,459.2,556.8,458.8,556.8z"/>
			<path fill="#80D1F5" d="M500.4,561.8c-0.6-0.2-1.6-0.6-2.2-0.4c-0.8,0.2-1.4,1.8-2.5,0.8c-1.2-1.1-2.2-0.9-3.7-0.6
				c-2,0.4-3.7,2.7-5.5,0.6c-0.8-1-1.7-1.5-3-1.6c-1.4-0.2-2.7,0.8-3.7,1.6c-2.3,1.9-3.1,0.4-5-1.1c-3-2.2-7.6,4.3-10,0.8
				c-0.4-0.6-1.2-0.2-1.1,0.5c0.6,3.2,5.2,2.6,7.3,1.3c1.6-0.9,2.2-1.5,3.6-0.1c0.7,0.7,1.3,1.2,2.2,1.7c1.2,0.7,2.7,0,3.7-0.8
				c0.9-0.8,1.8-1.7,3.1-1.8c0.9-0.1,2,1.6,2.6,2.1c1,0.8,2.4,0.8,3.5,0.2c0.9-0.5,1.8-1.1,2.9-1.5c1.5-0.6,2.1,0.5,3.2,0.9
				c1.3,0.5,3.5-1.3,4.7-1.7C500.8,562.6,500.8,561.9,500.4,561.8z"/>
		</g>
	</g>
	<g>
		<path fill="#FFFFFF" d="M373.5,435.5c-0.3,0.9-0.6,1.8-0.8,2.6c-0.2,0.5-0.4,1.4-0.6,2c-0.8,0.6-1.9,1.4-3.2,2.2
			c0.6-1,1.2-2,1.7-3C371,438.7,372.2,437.4,373.5,435.5z"/>
		<g>
			<path fill="#414341" d="M244.9,452.9c-0.1,0-0.2,0-0.3,0c-8.1-1.4-15.9-9.8-16.3-10.1c-0.5-0.5-0.6-1.3-0.3-1.9
				c0.3-0.6,1-1,1.7-0.9c3.5,0.4,10.2-1.4,12.4-2.1c0.9-0.3,1.8,0.2,2.1,1.1s-0.2,1.8-1.1,2.1c-0.3,0.1-5.1,1.6-9.5,2.2
				c2.8,2.4,7.2,5.7,11.5,6.4c0.9,0.2,1.5,1,1.4,1.9C246.4,452.3,245.7,452.9,244.9,452.9z"/>
		</g>
		<path fill="#FEDDBC" d="M300.9,383.2c-1.1-0.6-21.1,38.8-34.2,46.9c0,0,16.9,37.6,53.6,32.9s49-34.2,49-34.2s-2.5-27-30.4-33.8
			l2.5,6.8C341.4,401.8,327.9,399.2,300.9,383.2z"/>
		<path fill="#FEDDBC" d="M307.2,525.5l-4.2,28.1l3.4,1.1l9-24.8C315.3,530,309.7,526.3,307.2,525.5z"/>
		<path fill="#FEDDBC" d="M327.2,528.8l4.8,25.9l4.5-0.3l-0.3-23.6C336.2,530.8,330,529.4,327.2,528.8z"/>
		<path fill="#FEDDBC" d="M353.1,457.1l2,9.6c0,0,26.7-12.7,27.6-13.2c0.8-0.6,3.1,1.7,8.7,2s5.6-0.3,4.8-2.3
			c-0.8-2-2.8-3.7-2.8-3.7s9-3.1,8.7-4.8s-5.1-2.8-5.1-2.8l-2.8,0.8c0,0,3.4-8.4,1.4-9.6c-2-1.1-9.3,6.5-9.3,6.5s0.6-7-3.1-6.8
			c-3.7,0.3-5.9,12.1-5.9,12.1L353.1,457.1z"/>
		<path fill="#FEDDBC" d="M282.1,461.8c0,0-16.9-7-19.1-8.7c-2.3-1.7-0.3-7.6-3.7-8.2c-3.4-0.6-4.5,2.8-4.2,5.1c0,0-5.6-3.7-9.6-3.9
			c-3.9-0.3,0.3,6.5,0.3,6.5s-6.8,0.8-5.9,4.2s6.8,4.5,6.8,4.5s-1.4,4.8,1.4,6.5c2.8,1.7,10.1-5.9,10.1-5.9s11.8,7.9,17.5,7.9
			c5.6,0,9.6,1.4,9.6,1.4S283.8,462.7,282.1,461.8z"/>
		<path fill="#F6B992" d="M369.2,428.8c0,0-2.5-27-30.4-33.8l2.5,6.8c0,0-13.5-2.5-40.5-18.6c-0.1-0.1-0.5,0.3-1,1.1
			c13.7,14.9,32.6,24.9,52.6,27.7c3.9,9.5,2.1,20.7-3.4,29.3c-5.5,8.6-14.5,14.6-24.2,17.9c-6.4,2.1-13.1,3.1-19.9,3.3
			c4.6,0.9,9.7,1.2,15.2,0.5C357,458.3,369.2,428.8,369.2,428.8z"/>
		<path fill="#F6B992" d="M402,444.7c-0.3-1.7-5.1-2.8-5.1-2.8l-2.8,0.8c0,0,0.1-0.3,0.3-0.9c-3.4,1.4-6.6,3.1-9.6,5.1
			c-9.5,6-20.3,10.1-31.5,11.8l1.6,7.8c0,0,26.7-12.7,27.6-13.2c0.8-0.6,3.1,1.7,8.7,2c5.6,0.3,5.6-0.3,4.8-2.3
			c-0.8-2-2.8-3.7-2.8-3.7S402.3,446.4,402,444.7z"/>
		<path fill="#F6B992" d="M285.2,471.1c0,0-0.7-4.1-1.7-6.9c-1.5-0.2-3.1,0-4.6,0.1c-4.6,0.1-9-2.7-13.3-4.5
			c-5.5-2.3-11-3.5-16.5-5.8l-4.3-1.3c-1.8,0.4-5.6,1.5-5,4.1c0.8,3.4,6.8,4.5,6.8,4.5s-1.4,4.8,1.4,6.5c2.8,1.7,10.1-5.9,10.1-5.9
			s11.8,7.9,17.5,7.9C281.3,469.7,285.2,471.1,285.2,471.1z"/>
		<path fill="#F6B992" d="M306.3,554.7l9-24.8c0,0-2.4-1.6-4.8-2.9c-0.2,0.1-0.4,0.2-0.6,0.4c-1,9-2.6,18-4.6,26.9L306.3,554.7z"/>
		<path fill="#F6B992" d="M334.4,554.6c0-0.4,0-0.9-0.1-1.3c-0.9-7.3-1.9-14.6-2.8-21.9l-1.7-2c-1-0.2-2-0.4-2.7-0.6l4.8,25.9
			L334.4,554.6z"/>
		<path fill="#F69A9C" d="M302.1,383.2c0,0-11,23.6-18.6,32.1c-7.6,8.4-15.6,14.8-15.6,14.8s7.2,15.2,15.6,20.7
			c8.4,5.5,14.4,11,14.4,11l-12.7-2.1l-1.8,2.3l-19.1-8.7c0,0-0.4-7.6-3.7-8.2c-3.2-0.6-4.2,5.1-4.2,5.1s-7.9-3.1-9.6-3.9
			c-1.7-0.8-3,4-0.7,6.6c0,0-10.7-6.6-14.1-10l11.4-3.8c0,0-11-3-14.8-5.5c-3.8-2.5-8-6.8-8-6.8s6.3,3,14.8-0.8
			c0,0-19.4-8.4-23.2-11.4c-3.8-3-3.8-3-3.8-3s10.1,0.4,18.6-0.8c8.4-1.3,14.4-6.3,14.4-6.3s-16,1.3-22-3c0,0,25.7-9.7,32.5-16.5
			c6.8-6.8,6.8-29.1,39.3-35.5s36.3-4.6,58.7,4.2c22.4,8.9,32.5,38.4,30.4,53.6c-2.1,15.2-9.7,21.5-9.7,21.5s0.4-26.2-30.4-33.8
			l2.5,6.8C342.6,401.8,324.9,398.4,302.1,383.2z"/>
		<g>
			<path fill="#F48284" d="M349.8,353.6c-20.3-8-25.3-10.2-50.2-5.8l-2.1,1.6c27.7-2.8,56.2,13.9,67.4,39.4c-8-3.1-16-6.3-23.9-9.4
				c4.2,2.8,7.8,6.5,10.6,10.7c-10.9,0.5-21.9-2.9-30.6-9.4c2.3,3.2,4.6,6.5,6.9,9.7c-8.1-1-16-2.9-23.6-5.9
				c21.8,14,38.4,17.2,38.4,17.2l-2.5-6.8c30.8,7.6,28.1,35.3,28.1,35.3s9.8-7.9,12-23.1C382.3,392.1,372.2,362.5,349.8,353.6z"/>
			<path fill="#F48284" d="M301.1,383.3c0.2,0.3,0.4,0.5,0.6,0.8c0.1-0.2,0.2-0.3,0.2-0.5C301.6,383.5,301.4,383.4,301.1,383.3z"/>
		</g>
		<path fill="#F48284" d="M283.5,415.3c6.5-7.2,15.3-25.3,17.9-30.6c0.1-0.6,0.1-1.2,0.2-1.8c-16.9,14.7-35.2,30.1-57.4,33.1
			c-11.2,1.5-22.7-0.2-33.7-3.1c15.1,11,34.8,15.6,53.2,12.6c-5.7,4.9-13.4,6.8-20.9,6.8c-6.5,0-12.8-1.3-19.1-2.7
			c0.8,0.7,1.7,1.5,2.7,2.3c12.6,6,26.3,9.6,40.3,10.2c-10,5.1-22.4,5-32.3-0.1l-1,0.3l-0.7,1c3.9,3.5,13.5,9.4,13.5,9.4
			c-2.4-2.7-1-7.5,0.7-6.6c1.7,0.8,9.6,3.9,9.6,3.9s1-5.6,4.2-5.1c3.2,0.6,3.7,8.2,3.7,8.2l19.1,8.7l1.8-2.3l12.7,2.1
			c0,0-5.9-5.5-14.4-11c-8.4-5.5-15.6-20.7-15.6-20.7S275.9,423.7,283.5,415.3z"/>
		<circle fill="#F69A9C" cx="284.7" cy="428.6" r="5.1"/>
		<circle fill="#F69A9C" cx="348.8" cy="423.6" r="5.1"/>
		<path fill="#F69A9C" d="M299.6,461.8l-14.4-2.3l0.6,14.1c0,0,12.7,0.8,15.8,5.6c3.1,4.8,1.7,12.9-7.3,16.3
			c-9,3.4-22.5,3.9-22.5,3.9s2.5,9.3,7.6,13.2c5.1,3.9,8.2,3.9,8.2,3.9s4.8,7.3,10.7,8.2c5.9,0.8,10.4,0.8,10.4,0.8
			s-2.3,3.1,6.8,4.2c9,1.1,14.5-0.6,14.5-0.6s3.8,1.1,8.3,0.3c4.5-0.8,7-4.5,7-4.5s14.4-11.8,16.3-14.9c2-3.1-4.2-14.9-10.7-18.9
			c-6.5-3.9-11.8-5.6-11.8-5.6s-1.4-8.4-0.6-9.8c0.8-1.4,11.8-2.8,11.8-2.8l4.2-2.8l-3.4-15.2c0,0-20.5,7.6-28.7,8.2
			C314.2,463.8,299.6,461.8,299.6,461.8z"/>
		<path fill="#F48284" d="M326.2,499.9c8.7-1.5,17.6-3.7,25.2-8c-0.2-0.1-0.4-0.3-0.6-0.4c-6.5-3.9-11.8-5.6-11.8-5.6
			s-1.4-8.4-0.6-9.8c0.8-1.4,11.8-2.8,11.8-2.8l4.2-2.8l-3.4-15.2c0,0-20.5,7.6-28.7,8.2c-1.8,0.1-3.9,0.1-6.1,0l-0.1,1.5
			c0.7,3.8,2.8,7.4,5.7,10.1c3,2.7,7.2,4.7,8.4,8.6c1.3,3.9-1.3,8.3-4.8,10.5s-7.8,2.7-11.9,3.2
			C316.3,500.8,321.7,500.6,326.2,499.9z"/>
		<path fill="#F69A9C" d="M299.2,492.2c0,0-10.7,7.5-15.9,7.3c-5.2-0.1-10.7-0.3-10.7-0.3s3,10.4,6.8,13.5c3.8,3.1,7.6,4.2,7.6,4.2
			s4.6,5.5,10.5,6.8c5.9,1.3,10.4,1.4,10.4,1.4s4.5,5.8,11.7,5.6c7.2-0.1,8.4-1.8,8.9-2c0.4-0.1,6.3,2.7,10.3,0.7
			c3.9-2,5.6-4.4,5.6-4.4s14.5-10.3,17.9-14.2c0,0-2.1-8.9-8.3-16.2c-6.2-7.3-13.1-7.6-13.1-7.6S326.5,498.8,299.2,492.2z"/>
		<path fill="#F48284" d="M363,511c0,0-2.1-8.9-8.3-16.2c-6.2-7.3-13.1-7.6-13.1-7.6s-7.8,6.3-22.8,7l0,0.1
			c6.2,1.4,11.8,5.9,13.8,11.9c2,6,0,13.4-5.3,16.9c-2.3,1.5-5.1,2.2-7.7,1.5c-1.4-0.4-2.6-1.2-3.9-1.7c-4.2-1.5-8.8,0-13.1,0.8
			c-1,0.2-2.1,0.3-3.2,0.4c5.4,1.1,9.4,1.2,9.4,1.2s4.5,5.8,11.7,5.6c7.2-0.1,8.4-1.8,8.9-2c0.4-0.1,6.3,2.7,10.3,0.7
			c3.9-2,5.6-4.4,5.6-4.4S359.7,514.9,363,511z"/>
		<path fill="#F69A9C" d="M299.9,462.6l12.9,10.1l7-8.4c0,0,7.7,8.4,8.6,8.4c0.8,0,6.2-5.3,6.2-5.3l5.2-8.4c0,0-17.3,4.8-24.9,4.4
			C307.3,462.8,299.9,462.6,299.9,462.6z"/>
		<path fill="#F599AC" d="M327.5,471.5c0.5,0.4,1.1,0.7,1.7,0.8c1.2,0.2,2.3-0.8,3.1-1.6c1.7-1.7,3.4-3.4,4.7-5.4
			c1.3-2,2.3-4.3,2.2-6.7c-8.3,3.2-17.1,4.9-26,5c0.3,3.2-0.7,6.4-2.7,8.9c1.9,0.2,3.5-1.3,4.5-2.9c1-1.6,1.9-3.5,3.6-4.3
			C321.6,467.4,324.5,469.5,327.5,471.5z"/>
		<path fill="#F7C0D8" d="M303.9,555.2c-1.2-0.5-2.4,0.1-3.6,0.6c-1.3,0.6-2.5,1.3-3.6,2.3c-2.5,2.4-3.1,6.2-3.5,9.7
			c-0.1,1-0.1,2.1,0.6,2.7c0.8,0.6,2,0.2,3-0.3c2.3-1.3,4.5-2.7,6.2-4.6c1.7-2,2.9-4.5,2.7-7.1C305.7,557.1,305.2,555.7,303.9,555.2
			z"/>
		<path fill="#F7C0D8" d="M342.4,570.7c1.3-1.4,0.9-3.5,0.2-5.3c-1.1-3-2.7-5.9-4.7-8.5c-0.7-0.9-1.5-1.8-2.6-1.9
			c-1.2-0.1-2.2,0.9-2.5,2.1c-0.3,1.1-0.2,2.3,0.1,3.5c0.5,2.2,1.2,4.4,2.2,6.5c0.7,1.5,1.5,3,2.9,3.9
			C339.2,571.8,341.2,571.9,342.4,570.7z"/>
		<path fill="#F599AC" d="M299,570.1c3.4-2.2,5.9-5.7,6.9-9.7c0.3-1.2,0.4-2.5-0.1-3.6c-0.5-1.1-1.9-1.8-3-1.3
			c0.6,0.6,0.7,1.6,0.5,2.5c-0.2,0.8-0.7,1.6-1.2,2.3c-1.1,1.6-2.3,3.2-3.6,4.7c-1.2,1.5-2.8,3.1-4.7,2.9c-0.8,1.1,0.2,2.7,1.5,3
			C296.5,571.5,297.9,570.9,299,570.1z"/>
		<path fill="#F599AC" d="M340.1,570.4c0,0.2,0,0.4,0.1,0.6c0.2,0.5,0.8,0.6,1.3,0.4s0.8-0.6,1-1.1c1.3-2.6,0.5-5.8-0.5-8.5
			c-0.7-1.8-1.6-3.7-3-5c-1.5-1.3-3.7-1.9-5.5-1C337.6,559.4,340.1,564.8,340.1,570.4z"/>
		<path fill="#FFFFFF" d="M297.5,347.7c0,0-27.4,10.5-31.2,23.6c-3.8,13.1-16.9,30.4-46.4,27.9c0,0,25.7-4.2,32.1-14.4
			C258.2,374.8,267.1,349.8,297.5,347.7z"/>
		<path fill="#FFFFFF" d="M272.1,427.9c0,0,14.8,31.7,48.1,35c0,0-22.4,0.4-36.7-10.5c-14.4-11-16.9-22.4-16.9-22.4L272.1,427.9z"/>
		<path fill="#FFFFFF" d="M287.3,461.5c0,0,1.3,9.5,1.9,9.1c0.6-0.4,11,2.5,14.6,6.3c3.6,3.8,3.6,11-2.7,18.4
			c-6.3,7.4-24.7,8-24.7,8s4.2,10.8,13.5,10.1c0,0,6.5,10.1,14.8,11c0,0-7.6-0.2-11.8-2.7c-4.2-2.5-5.3-4.9-5.3-4.9s-5.4-0.1-9.6-5
			c-4.2-4.9-6.1-12.2-6.1-12.2s10.5,1.4,17.1-0.9c6.5-2.3,11-7.4,11-7.4s4.8-7.9,1.8-12c-3-4.1-15.8-5.6-15.8-5.6
			S280.4,459.4,287.3,461.5z"/>
		<path fill="#FFFFFF" d="M244.5,446.7c0,0,7.6,5.9,9.5,7c1.9,1.1,3.2,0.4,4-0.6c0.8-1.1-1.1-4.4,0.4-4.6c1.5-0.2,0,5.3,3,7
			c3,1.7,20,8.4,22,7.8c1.9-0.6-7-3.8-7-3.8l-12.1-6.3c0,0,0-7.8-3.7-8.2c-3.7-0.3-6,1.8-5.8,3.5c0.3,1.6,0,2.7,0,2.7
			S247.4,442.9,244.5,446.7z"/>
		<path fill="#FFFFFF" d="M301.7,555.8c0,0-3.8,8.2-7.2,10.5C291.1,568.7,295.1,556.3,301.7,555.8z"/>
		<path fill="#FFFFFF" d="M333.4,558.6c0,0,4.9,5.3,5.7,11C339.1,569.6,331.4,563.6,333.4,558.6z"/>
		<path fill="#FFFFFF" d="M359.9,456c-0.2,1,17.1-7,19.6-9.5c2.5-2.5,2.1-9.3,3.2-9.5c1.1-0.2-0.4,5.5,1.9,5.5
			c2.3,0,8.9-5.5,10.3-7.2s-0.8-2.1-0.8-2.1l-8.7,6.8c0,0-0.2-7-2.3-7.1c-2.1-0.1-5.7,10.7-5.7,10.7S360.2,454.7,359.9,456z"/>
		<g>
			<path fill="#414341" d="M316.7,464.7c-34.6,0-47.9-27.8-49.8-32.2c-0.9,0.7-1.9,1.5-2.9,2.1c-0.8,0.5-1.8,0.3-2.3-0.4
				c-0.5-0.8-0.3-1.8,0.4-2.3c20.6-14.1,35.8-47.2,36.8-50.3c0.1-0.6,0.5-1,1-1.2c0.5-0.2,1.2-0.1,1.6,0.3c0.2,0.1,18.2,13.4,38,20
				c-0.7-1.5-1.9-3.5-4.1-5.9c-0.5-0.6-0.6-1.4-0.2-2s1.1-1,1.9-0.8c0.3,0.1,30.6,7.6,32.9,34.6c0,0.1,0,0.3,0,0.4
				c-0.1,0.3-6.1,33-45.7,37.3C321.6,464.6,319.1,464.7,316.7,464.7z M269.6,430.3c0.1,0.1,0.2,0.3,0.2,0.4
				c0.5,1.4,13.5,34.6,54,30.2c35.5-3.9,42.2-31.7,42.7-34.4c-1.6-17.8-17-26.3-25.2-29.6c2.2,3.6,2.3,5.9,2.3,6.2
				c0,0.5-0.2,1-0.7,1.4c-0.4,0.3-1,0.4-1.5,0.3c-18.1-5.4-34.9-16.5-40.3-20.2C297.9,392.1,285.9,416,269.6,430.3z"/>
		</g>
		<g>
			<path fill="#414341" d="M365.5,436.9c-0.4,0-0.9-0.2-1.2-0.5c-0.7-0.7-0.7-1.7,0-2.4c0.2-0.2,18.9-19.6,10.9-47.1
				c-3.6-12.4-13.6-23.9-27.5-31.4c-15.4-8.3-33.3-10.6-47.9-6.2c-0.1,0-0.2,0.1-0.3,0.1c-0.3,0-32,3.7-41,26.2
				c-7,17.4-25.7,22.8-36.4,24.4c6.5,1.9,16.1,3.5,23-0.3c0.8-0.4,1.8-0.2,2.2,0.6s0.3,1.7-0.4,2.3c-0.7,0.6-16.2,11.8-33.3,10.2
				c8.4,5.6,24,14.1,37.9,10.7c0.9-0.2,1.8,0.3,2,1.3c0.2,0.9-0.3,1.8-1.3,2c-21.9,5.2-46.1-15.2-47.1-16c-0.6-0.5-0.8-1.4-0.4-2.1
				c0.4-0.7,1.3-1,2-0.8c10.1,3.5,20.7,0.7,28.1-2.5c0,0-0.1,0-0.2,0c-10.4,0-20.6-4.5-21.2-4.8c-0.7-0.3-1.1-1.1-0.9-1.9
				c0.2-0.8,0.8-1.3,1.6-1.3c0.3,0,32-0.6,41-23c9.6-23.8,40.8-27.9,43.6-28.2c15.4-4.7,34.2-2.2,50.3,6.5
				c14.7,7.9,25.3,20.1,29.1,33.4c8.5,29.4-11.5,50.2-11.8,50.4C366.3,436.7,365.9,436.9,365.5,436.9z"/>
		</g>
		<g>
			<path fill="#414341" d="M258.9,442.6c-26,0-40.6-14.6-41.3-15.3c-0.5-0.5-0.6-1.3-0.3-2c0.3-0.6,1.1-1,1.8-0.9
				c8.5,1.4,14.1-0.8,14.2-0.8c0.9-0.3,1.9,0.1,2.2,0.9c0.3,0.9-0.1,1.8-0.9,2.2c-0.2,0.1-4.1,1.7-10.4,1.6
				c6.4,4.5,19.8,11.9,39,10.7c0.9-0.1,1.7,0.6,1.8,1.6c0.1,0.9-0.6,1.7-1.6,1.8C261.8,442.5,260.3,442.6,258.9,442.6z"/>
		</g>
		<g>
			<path fill="#414341" d="M334.6,532.2c-2.8,0-5-1.2-6.2-2c-12.8,4.4-18.9-1.2-20.8-3.5c-13.4,1-19.7-6.1-21.4-8.4
				c-13-1.8-16.3-18.6-16.4-19.3c-0.1-0.6,0.1-1.1,0.5-1.5c0.4-0.4,1-0.6,1.5-0.4c16.4,3.5,23.3-3,26-7.2c2.8-4.4,2.6-8.7,1.9-9.6
				c-1.8-2.4-9.3-3.7-13.6-3.9c-0.6,0-1.2-0.4-1.4-1c-3-6.8-2-15.9-2-16.3c0.1-0.5,0.3-1,0.8-1.3c0.5-0.3,1-0.3,1.5-0.1
				c5.5,2.2,16.8,2.3,17,2.3c0.9,0,1.7,0.8,1.7,1.7c0,0.9-0.8,1.7-1.7,1.7c0,0,0,0,0,0c-0.4,0-9.7-0.1-16-1.9
				c-0.1,2.7,0,7.5,1.5,11.5c3.2,0.3,12.1,1.4,15,5.2c1.8,2.3,1.6,8.1-1.7,13.5c-3,4.7-10.3,11.9-26.9,9.2
				c1.4,4.5,5.2,13.4,13.5,14.2c0.6,0,1,0.4,1.3,0.8c0.2,0.3,5.4,8.8,19.6,7.4c0.7-0.1,1.3,0.3,1.6,0.8c0.2,0.3,4.8,7.6,18.2,2.7
				c0.6-0.2,1.3-0.1,1.7,0.3c0,0,2.3,2.1,5.3,1.8c2.3-0.2,4.6-1.7,6.7-4.6c0.2-0.2,0.5-0.4,0.7-0.6c0.1-0.1,12.9-5,17.5-12.4
				c-1.3-3.7-8.1-21.1-18.5-22.9c-5-0.8-6-8.2-5.9-12.4c0.2-3.7,4.9-4.3,9.9-4.9c2.8-0.3,5.9-0.7,7.7-1.6l-3.1-12.5l-6.3,2.4
				c-0.9,0.3-1.9-0.1-2.2-1c-0.3-0.9,0.1-1.9,1-2.2l8.1-3.1c0.5-0.2,1-0.1,1.4,0.1c0.4,0.2,0.7,0.6,0.9,1.1l3.9,15.5
				c0.2,0.6-0.1,1.3-0.6,1.7c-2.3,1.9-6.4,2.4-10.3,2.9c-2.3,0.3-6.6,0.8-7,1.7c-0.2,4,0.9,8.6,3,8.9c13.6,2.3,21.1,24.9,21.4,25.9
				c0.1,0.4,0.1,0.9-0.1,1.3c-4.4,8-16.6,13.3-19.1,14.4c-2.7,3.4-5.7,5.2-8.9,5.5C335.1,532.2,334.9,532.2,334.6,532.2z"/>
		</g>
		<g>
			<path fill="#414341" d="M283.9,473c-0.1,0-0.1,0-0.2,0c-9.3-0.9-21.2-7.7-25.1-10c-2.6,2.9-8,8.2-11.6,6.4
				c-1.1-0.5-1.8-1.4-2.2-2.5c-0.4-1.3-0.2-2.7,0.2-4c-0.6,0-1.3,0-2-0.1c-1.9-0.4-3.4-1.6-4.5-3.6c-1.2-2-0.8-3.5-0.3-4.4
				c0.9-1.6,3-2.5,5-3c-0.7-0.8-1.3-1.7-1.5-2.8c-0.1-0.9,0-2.3,1.5-3.6c3-2.7,7.4-0.1,10.4,2.4c0.2-1.2,0.6-2.1,1.2-2.9
				c1.1-1.3,2.8-1.9,5-1.9c3.2,0.1,3.5,3.1,3.7,4.9c0.2,2.3,0.5,3.8,2.3,4.8c4.9,2.6,18.1,7.9,18.3,8c0.9,0.3,1.3,1.3,0.9,2.2
				c-0.3,0.9-1.3,1.3-2.2,0.9c-0.6-0.2-13.5-5.4-18.6-8.1c-3.5-1.9-3.8-5.2-4-7.4c-0.1-0.7-0.2-1.7-0.3-1.9c-1.2,0-2,0.2-2.4,0.7
				c-0.6,0.7-0.7,2.3-0.3,4.4c0.1,0.7-0.2,1.5-0.9,1.8c-0.7,0.3-1.5,0.2-2-0.4c-2.7-3-7.4-6.4-8.7-5.1c-0.3,0.3-0.4,0.5-0.4,0.6
				c0.1,0.8,2,2.2,3.4,2.9c0.7,0.3,1.1,1.1,0.9,1.9c-0.2,0.8-0.8,1.3-1.6,1.3c-2.6,0.1-6,0.8-6.5,1.9c-0.2,0.3,0.1,0.7,0.2,1.1
				c0.7,1.1,1.4,1.8,2.3,2c1.6,0.4,3.3-0.7,3.3-0.7c0.7-0.4,1.5-0.3,2.1,0.2c0.6,0.5,0.7,1.4,0.3,2.1c-0.8,1.4-1.7,3.8-1.4,4.9
				c0.1,0.2,0.2,0.3,0.4,0.5c1.1,0.5,5.3-2.7,8.5-6.6c0.5-0.7,1.5-0.8,2.2-0.3c0.1,0.1,14.6,9.3,24.8,10.3c0.9,0.1,1.6,0.9,1.5,1.8
				C285.5,472.3,284.8,473,283.9,473z"/>
		</g>
		<g>
			<path fill="#414341" d="M355.2,468.3c-0.7,0-1.3-0.4-1.6-1c-0.3-0.9,0.1-1.9,0.9-2.2c10.1-4.2,27.5-13.9,27.7-14
				c0.5-0.2,1-0.3,1.5-0.1c4.9,2,10.2,3.3,11.2,2.6c0,0,0-0.1,0-0.2c-0.3-1.1-2.6-2.8-4.1-3.6c-0.7-0.3-1-1.1-0.9-1.9
				c0.2-0.7,0.8-1.3,1.5-1.3c4.3-0.3,8.1-1.5,8.4-2.3c-0.1-0.2-0.2-0.4-0.5-0.6c-1.4-0.8-5-0.2-7.1,0.5c-0.8,0.2-1.6-0.1-2-0.8
				c-0.4-0.7-0.3-1.5,0.3-2.1c2.6-2.4,4.4-5.3,4.1-6c-1.1-0.7-4.9,2.3-7.8,6c-0.5,0.6-1.3,0.8-2,0.5c-0.7-0.3-1.1-1-1-1.8
				c0.3-2.3,0.2-4.8-0.3-5.4c0,0-0.1,0-0.1,0c-1.5,0.6-2.4,3.5-3.1,5.8c-0.7,2.2-1.2,4.2-2.4,5.3c-5.4,5-23.2,12.5-23.9,12.8
				c-0.9,0.4-1.9,0-2.2-0.9c-0.4-0.9,0-1.9,0.9-2.2c0.2-0.1,17.9-7.5,22.9-12.1c0.5-0.5,1.1-2.3,1.5-3.7c1-3.2,2-6.9,5.2-8.1
				c1.7-0.6,2.8,0,3.4,0.4c1,0.8,1.5,2.3,1.7,3.9c2.7-2.6,6.3-5.1,9.1-3.3c0.9,0.6,1.5,1.6,1.6,2.7c0.1,1.6-0.7,3.4-1.8,4.9
				c1.6-0.1,3.4,0,4.7,0.7c1,0.6,1.8,1.4,2.1,2.5c0.3,1.1,0.2,2.1-0.5,3c-1.2,1.7-4,2.7-6.6,3.2c0.9,0.9,1.8,1.9,2.1,3.1
				c0.3,1,0.1,2.1-0.4,2.9c-2.1,3.3-9.7,1-14.5-1c-3.4,1.9-18.1,9.9-27.3,13.7C355.6,468.3,355.4,468.3,355.2,468.3z"/>
		</g>
		<g>
			<path fill="#414341" d="M295.2,573.3L295.2,573.3c-0.9,0-1.7-0.3-2.4-0.9c-1.8-1.5-2-4.3-0.7-7.9c1.8-4.8,6.9-11.7,11.5-11.7
				c0.5,0,1,0.1,1.5,0.3c1,0.4,3.3,1.7,2.6,5.8C306.7,564.2,300.2,573.3,295.2,573.3z M303.6,556.2c-2.1,0-6.5,4.6-8.3,9.5
				c-0.7,2-0.8,3.6-0.2,4.2c0,0,0.1,0,0.2,0.1c2.2,2.7,8.2-6,9.1-11.6c0.3-1.7-0.3-2-0.5-2C303.8,556.2,303.7,556.2,303.6,556.2z"/>
		</g>
		<g>
			<path fill="#414341" d="M341.1,573.6L341.1,573.6c-4.8,0-9.5-9-10.5-13.9c-0.8-4.3,0.9-5.7,2-6.2c0.6-0.2,1.2-0.3,1.8-0.3
				c5,0,9.5,8.5,10.3,14.1c0.7,4.8-1.6,5.9-2.6,6.2C341.8,573.6,341.5,573.6,341.1,573.6z M334.4,556.5c-0.2,0-0.3,0-0.5,0.1
				c-0.3,0.4-0.3,2.8,1.4,6.5c2.1,4.6,4.7,7.1,5.8,7.1c0,0,0.1,0,0.1,0c0.3-0.3,0.6-2.5-0.8-6.2
				C338.8,559.9,336.2,556.5,334.4,556.5z"/>
		</g>
		<g>
			<path fill="#414341" d="M302.5,555.8c-0.1,0-0.1,0-0.2,0c-0.9-0.1-1.6-1-1.5-1.9l3.5-28.6c0.1-0.9,1-1.6,1.9-1.5
				c0.9,0.1,1.6,1,1.5,1.9l-3.5,28.6C304.1,555.1,303.3,555.8,302.5,555.8z"/>
		</g>
		<g>
			<path fill="#414341" d="M306.3,556.6c-0.2,0-0.4,0-0.6-0.1c-0.9-0.3-1.3-1.3-1-2.2c0.1-0.2,8-21,9.1-24.7
				c0.3-0.9,1.2-1.4,2.1-1.1c0.9,0.3,1.4,1.2,1.1,2.1c-1.2,3.7-8.8,24-9.1,24.9C307.6,556.2,306.9,556.6,306.3,556.6z"/>
		</g>
		<g>
			<path fill="#414341" d="M331.9,557.6c-0.8,0-1.5-0.6-1.7-1.4c0-0.2-4.1-23.6-4.5-25.7c-0.2-0.9,0.4-1.8,1.3-2
				c0.9-0.2,1.8,0.4,2,1.3c0.4,2.1,4.4,24.8,4.5,25.8c0.2,0.9-0.5,1.8-1.4,2C332.1,557.6,332,557.6,331.9,557.6z"/>
		</g>
		<g>
			<path fill="#414341" d="M336.8,556.1c-0.9,0-1.6-0.7-1.7-1.6c-1.1-22.9-0.5-23.4,0.2-24c0.4-0.3,0.9-0.5,1.4-0.4
				c0.9,0.2,1.5,1,1.4,1.9c0,0.2-0.1,0.3-0.2,0.5c-0.2,2,0.1,12.4,0.5,21.9C338.5,555.2,337.8,556,336.8,556.1
				C336.9,556.1,336.8,556.1,336.8,556.1z"/>
		</g>
		<g>
			<path fill="#414341" d="M312.6,474.1c-1.6,0-5-1.6-13.4-9.7c-0.7-0.6-0.7-1.7,0-2.4c0.7-0.7,1.7-0.7,2.4,0
				c3.9,3.8,8.9,8,10.7,8.7c1-1.2,3.1-4.9,4.6-8c0.4-0.8,1.4-1.2,2.2-0.8c0.8,0.4,1.2,1.4,0.8,2.2c-0.9,1.9-4,8.2-6,9.6
				C313.6,473.8,313.2,474.1,312.6,474.1z"/>
		</g>
		<g>
			<path fill="#414341" d="M328.5,474.6c-0.7,0-1.4-0.2-1.9-0.7c-3.2-2.7-8.4-8.1-8.7-8.3c-0.6-0.7-0.6-1.7,0.1-2.4
				c0.7-0.6,1.7-0.6,2.4,0.1c0.1,0.1,5.1,5.4,8.2,8c1.5-0.4,5.6-5.9,8.8-12.1c0.4-0.8,1.5-1.1,2.3-0.7c0.8,0.4,1.1,1.5,0.7,2.3
				c-1.6,3-7.1,13-11.2,13.8C328.9,474.6,328.7,474.6,328.5,474.6z"/>
		</g>
		<g>
			<path fill="#414341" d="M315.6,496.1c-9.7,0-16.5-3-17-3.3c-0.8-0.4-1.2-1.4-0.8-2.2c0.4-0.8,1.4-1.2,2.2-0.8
				c0.2,0.1,19.7,8.8,40-4.6c0.8-0.5,1.8-0.3,2.3,0.5c0.5,0.8,0.3,1.8-0.5,2.3C332.3,494.3,323.1,496.1,315.6,496.1z"/>
		</g>
		<g>
			<path fill="#414341" d="M315.8,454.9c-21,0-27-19.4-27.1-19.6c-0.3-0.9,0.2-1.8,1.1-2.1c0.9-0.3,1.8,0.2,2.1,1.1
				c0.2,0.8,6.3,19.7,28.2,16.9c21.9-2.8,23.1-20.3,23.2-21.1c0-0.9,0.9-1.6,1.8-1.6c0.9,0,1.6,0.8,1.6,1.8
				c0,0.2-1.3,21.1-26.1,24.3C318.9,454.8,317.3,454.9,315.8,454.9z"/>
		</g>
		<g>
			<path fill="#414341" d="M318.2,432.4c-2,0-3.9-0.5-4.9-1.2c-0.8-0.6-0.9-1.6-0.4-2.4c0.6-0.8,1.6-0.9,2.4-0.4
				c0.6,0.5,3.6,1,5.7,0.1c1.1-0.5,1.7-1.3,1.9-2.4c0.1-0.7-0.1-1.2-0.5-1.6c-1.3-1.4-4.7-1.7-5.8-1.7c-0.9,0-1.7-0.7-1.7-1.7
				c0-0.9,0.7-1.7,1.7-1.7c0.6,0,5.8,0,8.4,2.8c1,1.2,1.5,2.7,1.3,4.3c-0.3,2.3-1.6,4.1-3.9,5.1
				C321.1,432.2,319.6,432.4,318.2,432.4z"/>
		</g>
		<g>
			<path fill="#414341" d="M287.7,421c-0.1,0-0.2,0-0.4,0c-0.9-0.2-1.5-1.1-1.3-2c0.8-3.8,2.5-6.3,5.1-7.5c4.1-1.9,8.8,0.7,8.9,0.8
				c0.8,0.5,1.1,1.5,0.6,2.3c-0.5,0.8-1.5,1.1-2.3,0.7l0,0c0,0-3.4-1.8-5.9-0.6c-1.5,0.7-2.6,2.4-3.2,5.1
				C289.2,420.5,288.5,421,287.7,421z"/>
		</g>
		<g>
			<path fill="#414341" d="M331,414.3c-0.3,0-0.6-0.1-0.9-0.2c-0.8-0.5-1.1-1.5-0.6-2.3c2-3.4,4.4-5.1,7.2-5.3
				c4.9-0.3,8.8,4.6,8.9,4.8c0.6,0.7,0.4,1.8-0.3,2.4c-0.7,0.6-1.8,0.5-2.4-0.3l0,0c-0.8-1-3.5-3.7-6.1-3.5
				c-1.6,0.1-3.1,1.3-4.5,3.7C332.1,414,331.6,414.3,331,414.3z"/>
		</g>
	</g>
	<g>
		<g>
			<path fill="#80D1F5" d="M157.6,286.5c-16.8,3.3-32.7,9.7-48.2,16.9c-0.6,0.3-1.2,0.5-1.7,0.7c-3.2,0.9-4.6-1.1-5-2.4
				c-0.5-1.6-0.4-4.2,0.3-4.5c12.9-5.8,26.3-10.8,40-13.6c8.9-1.8,28-5.5,30.9-1.7c0.4,0.5-0.7,2.4-2.1,2.6c-2,0.3-5.5,0.6-9.4,1.2
				C160.9,285.9,159.3,286.2,157.6,286.5z M141.7,294.7c2.7-0.6,3.5,1.7,4.3,5.2c0.3,1.3,0.5,2.6,0.6,3.2
				c3.4,15.6,9.2,31.4,13.6,44.8c0.8,2.4-1.2,4.8-4.1,5.4c-1.9,0.4-5.2-6.1-6.2-8.1c-5.3-11.7-7.6-24.9-10.4-37.3
				c-0.8-3.4-2.4-11.2,0.4-12.5C140.6,295,141.2,294.8,141.7,294.7z"/>
			<path fill="#80D1F5" d="M208.2,323.5c0-0.6-0.1-1.5-0.2-2.7c-5.2,9.7-12.8,24.8-23.1,26.7c-7.1,1.4-10.2-10.3-11.2-16.2
				c-1-5.9-2.5-17,4.5-18.2c3.4-0.6,3.8,1.3,4.2,3.6c0.3,1.7-0.1,3.7-0.9,5.3c-0.8,1.9-1.2,7.9-0.2,13.1c0.8,4.7,2.9,8.9,5.9,8.2
				c9.3-2.2,16.7-15.6,20.6-24.3c-0.4-5.8-0.7-14.6,2.4-16.1c0.5-0.2,1-0.4,1.5-0.5c2.6-0.3,4.9,1.5,5.1,3.2c0.4,3-1.6,4.5-2.8,7
				c0,0.5,0,0.7-0.1,1.2c-0.2,3.7-0.3,5.8,0.2,9.8c0.2,1.4,0.4,2.9,0.8,4.4c2.5-6.9,6.6-18,13.2-19.7c3.1-0.8,4.8,7.3,5,10
				c0.3,2.7,3.3,14.5,7.5,14.1c5.2-0.5,9.2-7,11-7.1c0.2,0,0.4,0.1,0.5,0.2c0.1,0.1,0.2,0.3,0.3,0.5c0.2,2.8-8,11.6-13.2,11.8
				c-8.1,0.4-11.8-10.7-13.7-17.1c-0.2-0.3-0.5-1.5-0.7-1.4c-3.4,0.4-7.5,13-8.3,15c-0.5,1.4-0.1,7.7,0,8.9c0,0.4-0.4,0.7-1,0.7
				c-1.8,0.2-5.4-0.9-5.6-3C209.3,333.8,208.6,330.3,208.2,323.5z M178.6,299.2c-2.8,0.5-5.8-0.3-6.4-3.4c-0.4-2.1,0.4-3.9,4-4.5
				c2.7-0.5,6.7-0.7,7.5,3.6C184,297,181.4,298.8,178.6,299.2z"/>
			<path fill="#80D1F5" d="M279.6,329.9c-4.4,3.9-7.9,5.8-10.6,5.8c-9.9-0.1-10-20.2-12.1-24.6c-0.3-0.7-2-2.9-2.2-5
				c-0.2-2.6,1.1-5.3,6-5.6c4.4-0.3,3.9,5.8,4.2,7.2c0,0.2-0.3,3.8,0,8.1c0.4,6.6,1.9,14.6,7,14.4c2-0.1,6.5-1.9,7.8-4.5
				c2-4.1-1.9-25.5,7-26.5c2.4-0.3,3.5,1.7,3.5,4.7c0,8.6-3.6,16.8-5.9,25.1c0,0-3.8,23.4-18.6,25.7
				C250.8,357.1,275.8,347.3,279.6,329.9z"/>
			<path fill="#80D1F5" d="M304.9,329.9c0.3-8.3,0.4-15.2,0.4-20.7c-0.1-8.5-0.5-17.2-1.9-25.5c-0.5-3.1-1.6-6.2-1.6-9.3
				c0-3.4,2.5-3.7,3.5-3.7c4.6,0,5.5,6.3,5.5,8c0.8,7.2,0.9,14.4,0.9,21.6c0,9.7-0.7,19.6-1.6,29.3c2.1-0.1,4.5-0.1,7.1-0.1
				c5.2,0.1,11,0.4,16.7,1.3c8,1.2,9.2,4.3,9.2,4.3c0.1,0.3,0.2,0.7,0.2,1.1c0,0.8-0.4,2.1-2.4,2c-0.1,0-0.2,0-0.3,0
				c-8.4-1.6-16.7-3.5-25.2-4.7c-1.3-0.2-2.4-0.2-3.5-0.2c-4.7,0-5.9,1.5-7.8,1.5c-2.3,0-3.3-1.2-3.3-4.3
				C300.8,330.3,302.3,330.1,304.9,329.9z"/>
			<path fill="#80D1F5" d="M422.6,326.6c0,0-0.3,0-0.4,0.1c-4.1,2.3-9.8,8.9-11.2,10.9c-0.9,1.2-2,6.4-2.3,7.6
				c-0.1,0.4-0.5,0.5-1.2,0.4c-1.8-0.3-4.9-2.3-4.6-4.5c0.9-5.4,1.5-8.9,2.2-13.2c-4.7,5.3-11.9,13-19.1,12.7
				c-3.7-0.2-6.9-4.5-8.1-14.3c-4.4,5.3-9.9,12.9-17.4,12.6c-9.1-0.5-12.8-11.2-12.4-19.2c0.6-10.7,8.2-23.5,20.4-22.5
				c7.6,0.6,10.6,8.5,10,14.4c-0.1,0.6-0.2,1.1-0.3,1.7c1.8-2.3,3.4-3.9,4.9-3.7c0.8,0.1,1.5,1.7,1.5,1.7
				c-0.8,7.4-0.7,24.3,4.4,25.2c4.5,0.8,12.3-7.8,16.9-13.2c1.9-7.4,6.7-22.9,14.2-23c2.1,0,3,1.9,2.6,4.2c0,0.2-0.1,0.4-0.3,0.6
				c-1.3,2.3-4.5,6.9-8.5,12.2c-1.2,3.5-2.5,7.9-2.9,10.7c-0.1,1-0.2,1.7-0.1,2.3c4.7-5.7,12-15.5,17.5-16c1.9-0.2,3.6,3.1,3.2,5.1
				c-0.4,2.1-1.4,4-1.7,6.3c-0.5,2.8,0.2,15.2,4.2,17.2c0.9,0.5,1.9,0.8,3.1,1c3.4,0.6,7.9,0.3,12.6-0.7c0-1.4,0.1-2.9,0.5-4.3
				c2.2-10,10.9-22.1,22.7-19.5c2.7,0.6,5.8,2.2,7.3,4c1.5-6.1,2.2-9.1,3.7-15.2c1.7-6.8,5.5-32.8,15.7-31.1
				c3.8,0.6,4.4,6.8,2.3,14.5c-3.5,13.4-12.9,26.8-17.3,37.8c-2.1,5.3-5.5,20.3-2.1,22.9c0.1,0,0.2,0.1,0.3,0
				c3.3-0.1,5.1-0.9,12.6-5.8c0.2-0.2,0.4-0.2,0.5-0.2c0.6,0.2,0.7,1.3,0.4,2.6c-0.2,0.8-0.5,1.5-1.2,2.1c-6,5.3-11.6,7.4-15.6,6.4
				c-4.1-1-4.8-5.8-3.1-16c-1.3,1.6-2.6,3-3.7,4.1c-7.4,6.7-12.7,8.7-16.3,7.9c-3.8-0.8-5.8-3.6-6.4-7.4c-6.3,1.7-12.4,2.5-16.5,1.7
				c-0.7-0.1-1.4-0.3-2.1-0.6C423.3,343.2,425.5,328.9,422.6,326.6z M375.4,317.6c0.5-1.6,0.9-3.2,1-4.8c0.6-5.8-1.5-11.5-7.3-11.9
				c-9.2-0.7-13.9,8.7-14.3,16.7c-0.4,6.8,1.8,13.4,5.8,13.4C366.8,331,372.7,322.7,375.4,317.6z M480,326.1c-0.4-1.4-2.4-3.4-5.6-4
				c-9-1.7-16.6,7.3-18.5,15.5c-0.3,1.3-0.4,2.7-0.3,3.9c8.2-2.3,18-5.6,23.7-12.5C479.6,327.9,479.7,327.3,480,326.1z M456.2,344.1
				c0.6,1.2,1.8,2.4,3,2.5c6.6,0.7,14.4-8.2,18.5-13.3C471.4,338.4,463.7,341.2,456.2,344.1z M487.5,319.7
				c6.1-10,10.4-20.6,13.5-31.6c0.9-3.4-0.4-5.2-0.7-5.2C494.8,283.9,489.8,310.2,487.5,319.7z"/>
		</g>
	</g>
</g>
</svg>
