<?xml version="1.0" encoding="utf-8"?>
<!-- Generator: Adobe Illustrator 17.1.0, SVG Export Plug-In . SVG Version: 6.00 Build 0)  -->
<!DOCTYPE svg PUBLIC "-//W3C//DTD SVG 1.1//EN" "http://www.w3.org/Graphics/SVG/1.1/DTD/svg11.dtd">
<svg version="1.1" xmlns="http://www.w3.org/2000/svg" xmlns:xlink="http://www.w3.org/1999/xlink" x="0px" y="0px"
	 viewBox="0 0 3644.5 1184.4" enable-background="new 0 0 3644.5 1184.4" xml:space="preserve">
<g id="Background" display="none">
</g>
<g id="Objects">
	<path fill="#F69A9C" d="M3278.5,311.9c-61.4,3.1-89.1,55.1-129.8,91.5c-6-62-21.3-125.4-76-162.6c-52.8-35.9-130.6-25.5-171.4,23.9
		c-42.2,51.1-39.4,129.9,8.3,176.6c51.6,50.5,141.8,59.6,205.5,28.4c2.1-0.2,4.1-0.5,6.2-1c11.2,19.9,35.8,35.4,54.4,43.7
		c28,12.5,58.8,19.5,89.6,19.2c65.3-0.4,127.1-40.4,127.8-111.1C3393.8,358.9,3340.1,308.8,3278.5,311.9z"/>
	<path fill="#F69A9C" d="M3242.7,580.2c-28.2-44.9-64.3-82.3-106.3-114.3c-7-5.4-15.9-6.5-24.4-4.8c-1.7-0.4-3.4-0.7-5.2-0.8
		c-3.3-1.9-7.1-3.2-11.3-3.5c-47.2-3.1-100.8,21.6-138,49c-37.9,28-86.6,73.5-56.8,124.8c30.9,53.1,87.9,21.4,124.3-5.7
		c24.9-18.5,47.1-39.8,66.4-63.7c9.6,26.2,23,51.3,36,71.7c23.7,37.3,71.8,114.1,125,82.9C3304.3,685.7,3264.9,615.7,3242.7,580.2z"
		/>
	<path fill="#3C3C3B" d="M3364.1,422.3c-2.2-53.8-47-97.7-101.9-92.6c-30.6,2.9-55.4,22.4-77.6,42c-25.2,22.3-47.9,47.2-67.3,74.6
		c2.6-32.1,0.5-64-6.1-95.8c-5.5-26.5-12.9-54.6-30.7-75.8c-37.7-44.8-104.9-31-139.1,10.4c-36.6,44.4-40.8,111,2.7,152.2
		c32,30.3,83.6,43.1,128.8,35.6c-19.4,8.2-38.7,16.5-58,25c-25.3,11.1-53,20.9-75.1,37.9c-29.6,22.7-49.5,71.8-14,99.3
		c34.7,26.8,79.3,5,105.1-22.7c31.3-33.6,60.2-77.4,74.4-122.7c1.7,37.5,8.9,74.7,23.4,109.4c9.3,22.3,21.5,43.3,37,61.9
		c11.4,13.7,26.7,32.6,45.8,34.5c38.5,3.8,41.5-49.9,38.4-75.9c-4-33.5-18.1-64.6-39.8-89.7c20.6,5.9,42.5,7.3,63.5,2.7
		C3324.7,521.6,3366.4,475.7,3364.1,422.3z M2959,430.5c-43.3-36.8-39.6-100.6-2.5-140.7c39.8-43,104.1-36.3,128.2,18.5
		c19.8,45.1,23.1,97.9,20.8,146.6C3059.4,470.2,2995.9,461.8,2959,430.5z M2940,628.8c-24.4-12.6-24.1-41.9-11.2-62.7
		c12.8-20.6,35.6-31.6,57-41.4c38.9-17.7,78.1-34.9,117-52.7c-15.9,36.3-35,70.8-58.4,103C3021.9,606.2,2983.7,651.4,2940,628.8z
		 M3235.6,611.4c3.2,17.1,5,37.6-1.7,54.1c-12.7,31.2-39.4,7.5-53.1-8c-46.2-52.3-62-122.4-67.7-190.3c0.7-0.3,1.3-0.6,2-0.9
		c1.2-0.6,2-1.4,2.5-2.3c19.4,17.3,36.2,36.5,57.7,50.4c0.4,0.9,1,1.7,1.9,2.5C3207.5,540.4,3228.6,573.5,3235.6,611.4z
		 M3260.8,520.4c-25.7,3.3-52.2-3.2-74.6-15.8c-24-13.5-41.1-35.3-61.8-53.1c-0.2-0.1-0.3-0.2-0.5-0.4c14.7-17.2,30-33.9,46.4-49.6
		c20-19,42.9-41.3,68.7-52.2c53.5-22.8,109.4,17.6,111.3,74C3352,474,3309,514.3,3260.8,520.4z"/>
	<path fill="#3C3C3B" d="M3126.4,268.5c-4.3-3.9-9.9,0.9-8.7,5.9c3.4,13.8,12.9,25.2,17.7,38.6c5.7,16,7.6,32.8,0.9,48.8
		c-2.4,5.7,5.7,9.8,8.7,4.3C3161.6,336.2,3151.6,291.2,3126.4,268.5z"/>
	<path fill="#3C3C3B" d="M3248,290.6c-46.2-17.2-75.8,41.6-87.4,75.5c-1.9,5.5,5.9,9.7,8.3,4.1c16.2-37.6,33.5-69.1,77.9-73.2
		C3249.9,296.8,3251.3,291.9,3248,290.6z"/>
	<path fill="#3C3C3B" d="M3085.8,427.4c-3.9-30.8-8.8-62.4-15.7-92.7c-3.7-16.3-9.9-31.4-25-38.4c-0.6-0.6-1.4-1.1-2.3-1.3
		c-0.7-0.2-1.3-0.2-2-0.4c-0.2-0.1-0.3-0.1-0.5-0.2c-0.3-0.1-0.7-0.1-1-0.1c-25.6-3.9-41.9,23.3-35.4,45.1c-5.8-1.8-12.3-1.7-18,0.4
		c-16.4,6.1-22.4,25.6-19,41.6c10,46.3,74.3,65.4,114.5,55.7c2.4-0.6,2.7-2.8,1.8-4.6C3084.9,431.5,3086.1,429.7,3085.8,427.4z
		 M3004.2,410.4c-12.1-8.3-24.8-19.9-27.1-35.3c-3.4-22.8,20.9-35.5,36.8-18.5c1.1,1.2,2.4,1,3.4,0.2c3.7,0.7,6.8-3.9,3.6-7.3
		c-7.6-8.2-10.7-21.5-4.9-31.5c5.4-9.3,14.6-11.7,24.4-12.1c16,14.1,17.9,36.1,21.4,56.5c3.9,22.6,7.4,45.2,12.3,67.6
		c0,0.2,0.1,0.4,0.2,0.5C3049.2,429.9,3025.3,424.9,3004.2,410.4z"/>
	<path fill="#3C3C3B" d="M3294.1,430.8c4.1-3.7,7.2-8.3,9-13.3c2.8-5.3,4-11,2.6-16.5c1.9-0.9,3.1-3,2.2-5.6
		c-9.4-26.4-42.2-33.8-66.9-26.9c-35.4,10-64.5,43.8-83,73.9c-1.4,2.2,0.5,4.1,2.6,4.3c-1,1.8-1.1,4.2,0.8,5.8
		c17.6,15.3,112.4,74.4,133.9,39.1C3310.7,476.4,3313,443.4,3294.1,430.8z M3166.4,444.7c-0.6-0.3-1.1-0.5-1.7-0.6
		c32.7-31.4,87.5-96.2,130.9-48.9c0.4,4.2-0.2,8.5-1.6,12.5c-0.7,1.4-1.4,2.7-2.2,4.1c-3.5,5.6-8.4,10.1-14.4,12.9
		c-7,3.3-4.7,13.3,2,13.4c6.6,6.7,12.3,11.7,13.8,21.7c0.9,6.5,0.1,12.8-2.8,18.4c-0.1,0.1-0.3,0.1-0.4,0.1
		C3252.1,498.1,3199.8,463.8,3166.4,444.7z"/>
	<g>
		<g>
			<path fill="#80D1F5" d="M555.6,556.3c-148.7,29.5-289.7,86.3-427.3,149.4c-5.5,2.8-10.6,4.7-15.3,5.9
				c-28.4,7.6-41.1-9.6-44.2-21.2c-4-14.6-3.2-36.9,2.9-39.5c114.4-51.2,233.1-96,354.7-120.4c79.1-15.9,247.8-48.8,274.1-15.5
				c3.3,4.2-6.3,20.9-18.2,23c-17.7,3.1-48.7,5.6-83.6,10.8C585.3,550.9,570.6,553.3,555.6,556.3z M415.1,628.6
				c23.9-5.2,31.1,15.1,37.7,46c2.5,11.7,4.3,22.7,5.6,28.8c30.1,137.9,81.8,277.9,120.3,396.7c7,21.5-11,42.7-36.5,48.2
				c-17.2,3.7-45.8-53.7-54.6-71.8c-47.4-103.5-67.4-220.6-92.4-330.6c-6.9-30.3-20.9-99.7,3.4-111
				C405.2,631.7,410.3,629.6,415.1,628.6z"/>
			<path fill="#80D1F5" d="M1004.5,883.8c-0.1-4.9-1.3-13.3-2.2-23.9c-46.4,85.6-113.2,219.4-205.2,236.8
				c-63.3,12-90.2-91.2-98.9-143.5c-8.8-52.6-22-150.4,40.1-161.3c30-5.2,33.9,11.3,37.3,31.5c2.5,14.9-1.3,32.7-7.7,47.3
				c-7.5,17.1-10.3,70.4-2.2,116.4c7.4,42,26.1,78.9,52.6,72.6c82.8-19.8,148.1-138,182.9-215.4c-3.8-51.5-6.4-129.7,21.2-142.7
				c4.5-1.9,9.1-3.4,13.3-4c23.1-2.9,43.1,13.5,44.9,28.5c3.2,26.5-14.1,40.2-24.6,61.7c-0.3,4.3-0.4,6.5-0.7,10.8
				c-2.2,32.5-2.9,51,1.7,87.2c1.6,12.8,3.8,26,7,38.6c22.5-61,58.3-159.4,117-174.3c27.8-7.1,42.2,64.9,44.6,88.4
				c2.4,24.3,29.2,128.8,66.9,125.3c45.7-4.2,81.2-61.8,97.4-63c2-0.2,3.6,0.9,4.7,1.9c1.3,1.2,2.2,2.5,2.4,4.7
				c1.8,24.4-70.7,102.5-116.7,104.9c-71.6,3.7-104.7-94.9-121.7-151.9c-1.4-3-4.5-12.9-6.6-12.7c-29.7,3.3-66.8,115.4-73.6,133.2
				c-4.6,12.1-0.7,68.2-0.1,78.9c0.2,3.3-3.3,5.8-8.7,6.5c-15.8,2-47.6-7.9-49.4-26.2C1013.8,975.5,1008.1,944.3,1004.5,883.8z
				 M741.9,669c-24.8,4.2-51.6-2.7-56.5-30.3c-3.3-18.4,3.8-34.2,35.2-39.6c24-4.1,59.8-6.4,66.1,32.2
				C789.6,649.4,766.6,664.8,741.9,669z"/>
			<path fill="#80D1F5" d="M1637.8,940.7c-38.6,34.8-70.2,51.5-93.8,51.4c-87.8-0.7-88.5-179.2-107.4-218.1
				c-3.1-6.3-17.9-26-19.2-44.6c-1.6-23.1,9.9-47.2,53.5-49.8c38.8-2.4,34.5,51,36.8,64.2c0.1,1.8-2.3,34-0.1,71.7
				c3.3,58.2,16.4,129.8,62.3,127.6c17.6-0.8,57.5-16.9,68.7-39.8c17.9-36.6-16.5-226.1,61.9-235c21-2.4,30.9,15.4,30.9,42
				c0,76.1-32.2,148.9-52.3,222.8c0,0-33.4,207.1-165,227.9C1382.4,1181.8,1603.8,1095.3,1637.8,940.7z"/>
			<path fill="#80D1F5" d="M1861.2,940.3c2.4-73.4,3.8-134.3,3.3-183.2c-0.8-75.4-4.8-152.1-16.4-226.3
				c-4.2-27.1-14.3-55.1-14.4-82.6c-0.2-30.2,22.2-33,30.9-33c40.9,0,48.8,55.7,48.7,71.2c7.4,63.5,7.8,127.9,7.8,191.2
				c0,86.1-6,173.6-14.5,260c18.7-0.8,39.8-1,63-0.7c45.9,0.7,97.8,3.8,148.4,11.6c70.6,10.8,81.8,38,81.8,38
				c0.9,2.7,1.5,6.1,1.5,9.9c0.1,7.5-3.5,18.9-20.9,18.1c-1,0-1.5-0.1-2.5-0.1c-74.4-14.3-148.2-31-223.3-41.6
				c-11.5-1.5-21.5-2-30.6-2.1c-42.1-0.3-52.7,13.1-69.2,13.2c-20,0.1-29.1-11-29.3-38.5C1825.4,944,1839,942.1,1861.2,940.3z"/>
			<path fill="#80D1F5" d="M2904.8,911.3c-0.4-0.3-2.6,0-3.8,0.7c-36.6,20.2-86.7,79.2-99.5,96.2c-7.7,10.5-17.7,56.6-20,67.2
				c-0.7,3.3-4.7,4.7-10.2,3.9c-15.8-2.3-43.8-20.4-40.4-39.8c8.4-48.3,12.9-79,19.7-117.1c-41.9,47-105.2,115.3-169.1,112.3
				c-32.7-1.6-61-39.7-71.8-127c-38.6,47.1-87.9,114.6-154.2,111.3c-80.7-4-113.4-99-109.7-170.5c4.9-94.5,72.7-208.3,181.2-199.3
				c67,5.6,94.1,75.5,89,127.8c-0.5,5.3-1.5,10.1-2.5,14.9c15.6-20.8,30.1-34.5,43.6-33.1c7.3,0.8,13.1,14.8,13.1,14.8
				c-7.3,65.6-6.6,215.4,38.9,223.6c39.6,7.1,109-68.8,150-117.1c16.8-65.6,59.1-202.9,126-203.6c18.8-0.2,26.5,16.7,23.3,36.9
				c-0.3,1.8-1.1,3.4-2.5,5.5c-11.2,20.3-39.6,61.3-75.4,107.7c-10.9,31.2-21.8,69.6-25.4,94.7c-1.3,8.8-1.8,15.5-0.9,20.1
				c41.6-50.4,106.1-137.4,155.4-142.1c16.6-1.6,31.9,27.5,28.8,45.5c-3.2,18.4-12,35.8-15.4,55.5c-4.3,25,2.1,134.3,37.2,152.9
				c8,4.2,17.2,7.2,27.6,9.2c30.3,5.7,69.9,2.5,111.6-6.2c-0.1-12.3,1.3-25.3,4.2-38.2c19.5-88.3,96.4-196.1,201.2-172.8
				c23.5,5.2,51.8,19.9,64.8,35.4c13-53.8,19.5-80.6,32.5-134.4c14.9-60.5,48.6-290.4,139.5-275.6c34,5.5,38.6,60,20.6,128.7
				C3581.1,717.8,3497.9,836.9,3459,934c-19,47.4-49.1,179.9-18.8,203c0.5,0.4,2,0.5,3.1,0.3c29.2-1.3,45.1-7.8,111.4-51.6
				c1.5-1.4,3.7-1.8,4.7-1.5c5,1.4,6.4,11.9,3.3,23c-1.9,6.9-4.7,13.5-10.3,18.4c-53.2,47.2-102.5,65.6-138.7,56.4
				c-36.6-9.2-42.3-51.3-27.9-141.5c-11.5,14.6-22.9,27-32.9,36c-65.6,59.3-112.3,77.1-144.7,70.1c-33.3-7.3-51.1-32.3-56.7-65.2
				c-56.2,14.7-109.6,22.2-146.7,15.4c-6.4-1.2-12.8-2.8-18.4-5.2C2911.3,1058.2,2930.7,931.8,2904.8,911.3z M2486.3,831.6
				c4.4-13.9,7.9-28.3,9.3-42.9c4.9-51.3-13.1-101.6-64.5-105.4c-81.6-6-122.9,77.4-127,147.8c-3.5,59.9,16.3,118.7,51.2,119.1
				C2410,950.8,2462.3,877,2486.3,831.6z M3413.7,907.3c-3.4-12.7-21.2-30.2-49.4-35.5c-79.8-14.9-146.9,64.7-164,137.5
				c-2.8,11.8-3.6,24.2-2.7,34.9c72.8-20.5,159.9-50,209.7-110.6C3409.9,923.2,3411.2,917.9,3413.7,907.3z M3202.8,1066.3
				c5.6,10.3,15.6,20.9,26.9,22.2c58.6,6.6,127.2-72.6,164-117.8C3337.6,1016.1,3269.2,1041,3202.8,1066.3z M3479.8,850.8
				c54.1-88.2,92.4-182.6,119.6-279.7c8.4-30.2-3.2-46.5-6-46.1C3544.7,533.4,3500.7,766.2,3479.8,850.8z"/>
		</g>
	</g>
	<g>
		<g>
			<path fill="#80D1F5" d="M146.1,104.9c-0.2,2.9-0.3,4.3-0.5,7.1c38-19,78.3-35.2,120.3-42c20-3.3,73.5-8.4,76.4,19.8
				c1,10.2-11.2,17.5-20.7,18.9c-2.4,0.3-5.1,0.4-7.6-0.1c-20.3-3.1-41.2-0.9-60.8,2.5c-34.1,6-68.6,17-99.7,33.9
				c-2.8,1.5-5.3,3-7.9,4.1c3.6,37,7.3,74.2,15.7,110.4c0.9,3.9,2.1,7.4,2.9,11c28.8-33,75.3-51,117-57.6
				c17.3-2.7,35.3-4.4,53.1-2.8c8.1-1.2,12,3.8,12.8,9.7c0.7,5.4-1.4,6.8-9,7.9c-8,1.1-19.1,1.4-23.9,2.1
				c-56,11.5-113.7,29.3-141.2,84.2c2.8,15.1,6.1,30.2,9.7,45.1c5.3,22.4,11.3,44.7,17.6,66.9c54.2-19,111.4-39.6,165-49.8
				c4.2-0.8,18.5,1.3,19.4,7.8c0.2,1.7-0.2,3.5-2,5.7c-36.4,14.2-72,30.6-107.5,47.1c-35.3,16.4-71.9,39.4-108.6,48.4
				c-10.4,2.6-20.8-4.6-24.2-14.8c-5.4-16.4,15.1-27.3,26.8-32.7c1.5-0.7,2.3-1.1,3.8-1.8c-12.5-35.8-22.7-72.5-32-109.1
				c-13-51.2-23.7-103.3-30.4-155.9c-3.2,2.8-12.5,16.2-16.1,16.7c-8.1,1.1-20.2-9-21.4-15.8c-2.2-12.1,23.8-29.5,34.3-37
				c-0.5-3.4-0.6-6.6-0.6-9.8c-0.7-12,2.3-22.4,15.9-25.2C143.7,95.5,146.1,104.9,146.1,104.9z"/>
			<path fill="#80D1F5" d="M883.2,335.8c1.8,0.3,3.6,1.4,5,3.9c1.2,2.1,1.5,4.2,1.3,5.9c-0.7,4.8-5.2,8.5-5.2,8.5
				c-20.2,19-53.3,57-83.8,54.7c-32.8-2.4-27-69.1-26.2-89.3c-23.7,30.6-51.1,89.8-95.8,89.3c-50.4-0.6-65.3-58.3-65.4-100
				c0-8.5,0.5-16.8,1.8-24.5c-24.3-6.3-47.6-17.4-67-33.4c-3.2,33-10.1,66.3-19.6,98c-6.5,21.4-18.5,67-46,69.4
				c-51.6,4.5-72.2-100.1-75.7-136.5c-1.5-15.2-4.1-64.8,14.6-68c23.9-4,32.6,38.6,33.4,57c0.6,13.4-7.3,26.8-6.5,40
				c1.1,17.6,14.7,72.8,36.1,71.3c18.4-1.3,29.7-45.3,34.7-61.4c7.8-24.9,22.5-62.7,16.5-79.6c-3.9-11.2-22.4-33.6-23.7-50.7
				c-0.6-7.7,2.5-14.9,13-15.5c21.1-1.1,23.4,29.1,23.9,43.5c0.3,8.5-0.1,16.2,0.1,21.1c0,0.9,0,1.4,0.1,2.3
				c20.6,15.9,42.7,27.4,67.9,34c12.6-52.4,60.5-93,115.4-90.9c32.7,1.2,58.4,24.8,55.4,58.6c-0.1,1.1-0.5,2.2-0.6,3.1
				c3.7-2,7-3.1,10.8-2.8c4.4,0.4,15.4,2.9,14.4,9.9c-2.3,17-6.1,35.4-7.6,53c-1.2,14-7.3,62.7,14.8,64.5
				c20.3,1.6,42.7-21.1,58.2-33.6C877.4,337.6,880.1,335.4,883.2,335.8z M761.6,274c-28,14.9-61.6,18.4-92.4,18
				c-6.4-0.1-13.3-0.6-19.8-1.2c0,2.3-0.1,3.4-0.1,5.7c-0.3,19.9,1.2,64.2,30,64.5C718.4,361.4,743.9,300.7,761.6,274z M735,207.3
				c-41.7-2-77.8,35.7-84.5,74.7c5.6,0.7,11.2,0.8,16.4,0.9c24.8,0.3,96.3-2.2,100.5-37C770,225.5,756.4,208.3,735,207.3z"/>
			<path fill="#80D1F5" d="M924,172.5c4.2-15,20.9-29,23.8-46.8c2.2-13.7-6.2-28-18-34.7c-7.8-4.4-18.8-12.3-18.2-22.7
				c0.7-11.4,11.9-13.6,21.1-11.7c24,4.8,53.4,30.7,48.5,57.8c-3.5,19.9-27.1,64.7-49,63.9C926,178.1,923.3,175.2,924,172.5z"/>
			<path fill="#80D1F5" d="M1090.1,360.3c0.4-11.8-36.7-26.4-48.6-33.7c-20.4-12.6-49.8-32.4-44.7-60.5
				c6.3-34.7,36.6-63.1,73.3-54.8c6.5,1.5,13.3,4.2,20.3,7.9c2.1,1.1,3,2.7,2.5,3.8c-8.9,20.5-53.5,22.7-61.4,53.7
				c-0.1,0.6-0.2,0.8-0.3,1.4c-9.9,47.3,110.3,44.2,93.5,99.7c-7.9,26.3-52.5,40.5-75.2,49.2c-22.5,8.6-54.4,24.3-77.5,21.3
				c-7-0.9-16.1-4-12.7-17.5c4.6-18.4,46.6-25,62.6-30C1043.5,393.8,1089.5,380.2,1090.1,360.3z"/>
		</g>
	</g>
</g>
</svg>
