<?xml version="1.0" encoding="iso-8859-1"?>
<!-- Generator: Adobe Illustrator 16.0.0, SVG Export Plug-In . SVG Version: 6.00 Build 0)  -->
<!DOCTYPE svg PUBLIC "-//W3C//DTD SVG 1.1//EN" "http://www.w3.org/Graphics/SVG/1.1/DTD/svg11.dtd">
<svg version="1.1" id="Capa_1" xmlns="http://www.w3.org/2000/svg" xmlns:xlink="http://www.w3.org/1999/xlink" x="0px" y="0px"
	 width="89.594px" height="89.595px" viewBox="0 0 89.594 89.595" style="enable-background:new 0 0 89.594 89.595;"
	 xml:space="preserve">
<g>
	<g>
		<path d="M86.073,27.36c-2.256-5.336-5.485-10.126-9.6-14.239C72.36,9.007,67.569,5.776,62.235,3.52
			C56.712,1.185,50.845,0,44.797,0S32.882,1.185,27.36,3.521c-5.334,2.256-10.125,5.486-14.238,9.601
			c-4.114,4.113-7.344,8.903-9.6,14.238C1.186,32.882,0,38.748,0,44.797s1.185,11.915,3.521,17.438
			c2.256,5.336,5.486,10.125,9.6,14.238c4.114,4.114,8.904,7.346,14.238,9.602c5.523,2.336,11.39,3.521,17.438,3.521
			s11.915-1.185,17.438-3.521c5.334-2.256,10.125-5.486,14.238-9.602c4.114-4.113,7.344-8.902,9.6-14.238
			c2.336-5.521,3.521-11.389,3.521-17.438S88.409,32.882,86.073,27.36z M87.543,44.797c0,23.57-19.176,42.746-42.746,42.746
			c-23.57,0-42.746-19.176-42.746-42.746c0-23.57,19.176-42.746,42.746-42.746C68.368,2.051,87.543,21.227,87.543,44.797z"/>
		<path d="M54.313,29.303l-9.515,10.244l-9.966-10.244H6.743l0.139,31.123h26.986l11.002,10.879l10.592-10.879h27.386V29.303H54.313
			z M44.793,67.921l-9.456-9.403H8.653V31.211h25.252l10.922,10.878L55.05,31.211h25.892v27.307H54.024L44.793,67.921z"/>
		<g>
			<polygon points="33.265,32.761 10.205,32.761 10.205,56.967 33.634,56.967 33.661,53.921 44.794,65.021 55.731,54.023 
				55.731,56.967 79.39,56.967 79.39,32.761 55.721,32.761 44.864,44.314 			"/>
		</g>
	</g>
</g>
<g>
</g>
<g>
</g>
<g>
</g>
<g>
</g>
<g>
</g>
<g>
</g>
<g>
</g>
<g>
</g>
<g>
</g>
<g>
</g>
<g>
</g>
<g>
</g>
<g>
</g>
<g>
</g>
<g>
</g>
</svg>
